<svg xmlns="http://www.w3.org/2000/svg" viewBox="0 0 1920 1080" width="1920" height="1080">
<title>Diagrama de contenedores (C4 nivel 2) del sistema multiagente para el diseño de circuitos analógicos</title>
<defs><marker id="ah-334155" viewBox="0 0 12 12" refX="10" refY="6" markerWidth="15" markerHeight="15" markerUnits="userSpaceOnUse" orient="auto-start-reverse"><path d="M1,1.5 L11,6 L1,10.5 Z" fill="#334155"/></marker><marker id="ah-64748B" viewBox="0 0 12 12" refX="10" refY="6" markerWidth="15" markerHeight="15" markerUnits="userSpaceOnUse" orient="auto-start-reverse"><path d="M1,1.5 L11,6 L1,10.5 Z" fill="#64748B"/></marker><filter id="shadow" x="-10%" y="-10%" width="120%" height="130%"><feDropShadow dx="0" dy="3" stdDeviation="5" flood-color="#0F172A" flood-opacity="0.08"/></filter></defs>
<rect width="1920" height="1080" fill="#FFFFFF"/>
<text x="40.0" y="50.0" font-family="Inter, 'Segoe UI', Arial, sans-serif" font-size="16" font-weight="700" fill="#6D28D9" text-anchor="start" letter-spacing="1.8">SISTEMA MULTIAGENTE PARA EL DISEÑO DE CIRCUITOS ANALÓGICOS</text>
<text x="38.0" y="98.0" font-family="Inter, 'Segoe UI', Arial, sans-serif" font-size="44" font-weight="800" fill="#0F172A" text-anchor="start">Diagrama de contenedores</text>
<rect x="645.0" y="66.0" width="135.6" height="38.0" rx="19" fill="#F1F5F9" stroke="#CBD5E1" stroke-width="1.3"/>
<text x="659.0" y="91.0" font-family="Inter, 'Segoe UI', Arial, sans-serif" font-size="15" font-weight="700" fill="#475569" text-anchor="start" letter-spacing="1.4">C4 · NIVEL 2</text>
<rect x="335.0" y="140.0" width="1099.0" height="918.0" rx="26" fill="#F8FAFC" stroke="#94A3B8" stroke-width="1.8" stroke-dasharray="9 7"/>
<rect x="357.0" y="122.0" width="194.1" height="36.0" rx="18" fill="#FFFFFF" stroke="#94A3B8" stroke-width="1.5"/>
<g transform="translate(371.0,129.0) scale(0.9167)" fill="none" stroke="#64748B" stroke-width="2" stroke-linecap="round" stroke-linejoin="round"><path d="M21 8a2 2 0 0 0-1-1.73l-7-4a2 2 0 0 0-2 0l-7 4A2 2 0 0 0 3 8v8a2 2 0 0 0 1 1.73l7 4a2 2 0 0 0 2 0l7-4A2 2 0 0 0 21 16Z" /> <path d="m3.3 7 8.7 5 8.7-5" /> <path d="M12 22V12" /></g>
<text x="401.0" y="146.0" font-family="Inter, 'Segoe UI', Arial, sans-serif" font-size="15" font-weight="800" fill="#475569" text-anchor="start" letter-spacing="1.5">SISTEMA SPICE</text>
<rect x="40.0" y="168.0" width="260.0" height="236.0" rx="18" fill="#EFF6FF" stroke="#93C5FD" stroke-width="1.8" filter="url(#shadow)"/>
<circle cx="170.0" cy="224" r="34" fill="#DBEAFE"/>
<g transform="translate(148.0,202.0) scale(1.8333)" fill="none" stroke="#2563EB" stroke-width="1.9" stroke-linecap="round" stroke-linejoin="round"><path d="M21.42 10.922a1 1 0 0 0-.019-1.838L12.83 5.18a2 2 0 0 0-1.66 0L2.6 9.08a1 1 0 0 0 0 1.832l8.57 3.908a2 2 0 0 0 1.66 0z" /> <path d="M22 10v6" /> <path d="M6 12.5V16a6 3 0 0 0 12 0v-3.5" /></g>
<text x="170.0" y="290.0" font-family="Inter, 'Segoe UI', Arial, sans-serif" font-size="14" font-weight="700" fill="#64748B" text-anchor="middle" letter-spacing="1.4">PERSONA</text>
<text x="170.0" y="320.0" font-family="Inter, 'Segoe UI', Arial, sans-serif" font-size="25" font-weight="700" fill="#0F172A" text-anchor="middle">Estudiante</text>
<text x="170.0" y="350.0" font-family="Inter, 'Segoe UI', Arial, sans-serif" font-size="17" font-weight="400" fill="#475569" text-anchor="middle">Diseña circuitos</text>
<text x="170.0" y="372.0" font-family="Inter, 'Segoe UI', Arial, sans-serif" font-size="17" font-weight="400" fill="#475569" text-anchor="middle">conversando con el sistema</text>
<rect x="40.0" y="470.0" width="260.0" height="282.0" rx="18" fill="#FFFBEB" stroke="#FCD34D" stroke-width="1.8" stroke-dasharray="8 6"/>
<circle cx="84" cy="514" r="23" fill="#FEF3C7"/>
<g transform="translate(71.0,501.0) scale(1.0833)" fill="none" stroke="#B45309" stroke-width="2.1" stroke-linecap="round" stroke-linejoin="round"><path d="M2.586 17.414A2 2 0 0 0 2 18.828V21a1 1 0 0 0 1 1h3a1 1 0 0 0 1-1v-1a1 1 0 0 1 1-1h1a1 1 0 0 0 1-1v-1a1 1 0 0 1 1-1h.172a2 2 0 0 0 1.414-.586l.814-.814a6.5 6.5 0 1 0-4-4z" /> <circle cx="16.5" cy="7.5" r=".5" fill="currentColor" /></g>
<text x="120.0" y="508.0" font-family="Inter, 'Segoe UI', Arial, sans-serif" font-size="14" font-weight="700" fill="#B45309" text-anchor="start" letter-spacing="1.4">SEGURIDAD</text>
<text x="120.0" y="534.0" font-family="Inter, 'Segoe UI', Arial, sans-serif" font-size="21" font-weight="700" fill="#0F172A" text-anchor="start">Llaves y tokens</text>
<text x="60.0" y="572.0" font-family="Inter, 'Segoe UI', Arial, sans-serif" font-size="16.5" font-weight="400" fill="#475569" text-anchor="start">Las llaves de IA se guardan</text>
<text x="60.0" y="594.0" font-family="Inter, 'Segoe UI', Arial, sans-serif" font-size="16.5" font-weight="400" fill="#475569" text-anchor="start">cifradas. Solo el servidor</text>
<text x="60.0" y="616.0" font-family="Inter, 'Segoe UI', Arial, sans-serif" font-size="16.5" font-weight="400" fill="#475569" text-anchor="start">las descifra y se las da a los</text>
<text x="60.0" y="638.0" font-family="Inter, 'Segoe UI', Arial, sans-serif" font-size="16.5" font-weight="400" fill="#475569" text-anchor="start">agentes por la API interna.</text>
<text x="60.0" y="672.0" font-family="Inter, 'Segoe UI', Arial, sans-serif" font-size="16.5" font-weight="400" fill="#475569" text-anchor="start">Servidor y agentes usan un</text>
<text x="60.0" y="694.0" font-family="Inter, 'Segoe UI', Arial, sans-serif" font-size="16.5" font-weight="400" fill="#475569" text-anchor="start">token distinto en cada</text>
<text x="60.0" y="716.0" font-family="Inter, 'Segoe UI', Arial, sans-serif" font-size="16.5" font-weight="400" fill="#475569" text-anchor="start">sentido.</text>
<rect x="370.0" y="178.0" width="490.0" height="235.3" rx="18" fill="#FFFFFF" stroke="#CBD5E1" stroke-width="1.8" filter="url(#shadow)"/>
<circle cx="418" cy="226" r="27" fill="#CCFBF1"/>
<g transform="translate(402.0,210.0) scale(1.3333)" fill="none" stroke="#0D9488" stroke-width="2" stroke-linecap="round" stroke-linejoin="round"><rect x="2" y="4" width="20" height="16" rx="2" /> <path d="M10 4v4" /> <path d="M2 8h20" /> <path d="M6 4v4" /></g>
<text x="460.0" y="218.0" font-family="Inter, 'Segoe UI', Arial, sans-serif" font-size="14" font-weight="700" fill="#64748B" text-anchor="start" letter-spacing="1.4">CONTENEDOR</text>
<text x="460.0" y="248.0" font-family="Inter, 'Segoe UI', Arial, sans-serif" font-size="25" font-weight="700" fill="#0F172A" text-anchor="start">Aplicación web</text>
<text x="394.0" y="286.0" font-family="Inter, 'Segoe UI', Arial, sans-serif" font-size="17.5" font-weight="400" fill="#475569" text-anchor="start">Chat, proyectos y archivos. Muestra esquema,</text>
<text x="394.0" y="309.1" font-family="Inter, 'Segoe UI', Arial, sans-serif" font-size="17.5" font-weight="400" fill="#475569" text-anchor="start">gráficas y código SPICE, y permite elegir el modelo</text>
<text x="394.0" y="332.2" font-family="Inter, 'Segoe UI', Arial, sans-serif" font-size="17.5" font-weight="400" fill="#475569" text-anchor="start">de IA de cada agente.</text>
<rect x="394.0" y="353.3" width="86.9" height="32.0" rx="16" fill="#F8FAFC" stroke="#E2E8F0" stroke-width="1.2"/>
<svg x="404.0" y="359.8" width="19" height="19" viewBox="0 0 24 24" fill="#149ECA"><path d="M14.23 12.004a2.236 2.236 0 0 1-2.235 2.236 2.236 2.236 0 0 1-2.236-2.236 2.236 2.236 0 0 1 2.235-2.236 2.236 2.236 0 0 1 2.236 2.236zm2.648-10.69c-1.346 0-3.107.96-4.888 2.622-1.78-1.653-3.542-2.602-4.887-2.602-.41 0-.783.093-1.106.278-1.375.793-1.683 3.264-.973 6.365C1.98 8.917 0 10.42 0 12.004c0 1.59 1.99 3.097 5.043 4.03-.704 3.113-.39 5.588.988 6.38.32.187.69.275 1.102.275 1.345 0 3.107-.96 4.888-2.624 1.78 1.654 3.542 2.603 4.887 2.603.41 0 .783-.09 1.106-.275 1.374-.792 1.683-3.263.973-6.365C22.02 15.096 24 13.59 24 12.004c0-1.59-1.99-3.097-5.043-4.032.704-3.11.39-5.587-.988-6.38-.318-.184-.688-.277-1.092-.278zm-.005 1.09v.006c.225 0 .406.044.558.127.666.382.955 1.835.73 3.704-.054.46-.142.945-.25 1.44-.96-.236-2.006-.417-3.107-.534-.66-.905-1.345-1.727-2.035-2.447 1.592-1.48 3.087-2.292 4.105-2.295zm-9.77.02c1.012 0 2.514.808 4.11 2.28-.686.72-1.37 1.537-2.02 2.442-1.107.117-2.154.298-3.113.538-.112-.49-.195-.964-.254-1.42-.23-1.868.054-3.32.714-3.707.19-.09.4-.127.563-.132zm4.882 3.05c.455.468.91.992 1.36 1.564-.44-.02-.89-.034-1.345-.034-.46 0-.915.01-1.36.034.44-.572.895-1.096 1.345-1.565zM12 8.1c.74 0 1.477.034 2.202.093.406.582.802 1.203 1.183 1.86.372.64.71 1.29 1.018 1.946-.308.655-.646 1.31-1.013 1.95-.38.66-.773 1.288-1.18 1.87-.728.063-1.466.098-2.21.098-.74 0-1.477-.035-2.202-.093-.406-.582-.802-1.204-1.183-1.86-.372-.64-.71-1.29-1.018-1.946.303-.657.646-1.313 1.013-1.954.38-.66.773-1.286 1.18-1.868.728-.064 1.466-.098 2.21-.098zm-3.635.254c-.24.377-.48.763-.704 1.16-.225.39-.435.782-.635 1.174-.265-.656-.49-1.31-.676-1.947.64-.15 1.315-.283 2.015-.386zm7.26 0c.695.103 1.365.23 2.006.387-.18.632-.405 1.282-.66 1.933-.2-.39-.41-.783-.64-1.174-.225-.392-.465-.774-.705-1.146zm3.063.675c.484.15.944.317 1.375.498 1.732.74 2.852 1.708 2.852 2.476-.005.768-1.125 1.74-2.857 2.475-.42.18-.88.342-1.355.493-.28-.958-.646-1.956-1.1-2.98.45-1.017.81-2.01 1.085-2.964zm-13.395.004c.278.96.645 1.957 1.1 2.98-.45 1.017-.812 2.01-1.086 2.964-.484-.15-.944-.318-1.37-.5-1.732-.737-2.852-1.706-2.852-2.474 0-.768 1.12-1.742 2.852-2.476.42-.18.88-.342 1.356-.494zm11.678 4.28c.265.657.49 1.312.676 1.948-.64.157-1.316.29-2.016.39.24-.375.48-.762.705-1.158.225-.39.435-.788.636-1.18zm-9.945.02c.2.392.41.783.64 1.175.23.39.465.772.705 1.143-.695-.102-1.365-.23-2.006-.386.18-.63.406-1.282.66-1.933zM17.92 16.32c.112.493.2.968.254 1.423.23 1.868-.054 3.32-.714 3.708-.147.09-.338.128-.563.128-1.012 0-2.514-.807-4.11-2.28.686-.72 1.37-1.536 2.02-2.44 1.107-.118 2.154-.3 3.113-.54zm-11.83.01c.96.234 2.006.415 3.107.532.66.905 1.345 1.727 2.035 2.446-1.595 1.483-3.092 2.295-4.11 2.295-.22-.005-.406-.05-.553-.132-.666-.38-.955-1.834-.73-3.703.054-.46.142-.944.25-1.438zm4.56.64c.44.02.89.034 1.345.034.46 0 .915-.01 1.36-.034-.44.572-.895 1.095-1.345 1.565-.455-.47-.91-.993-1.36-1.565z"/></svg>
<text x="430.0" y="374.3" font-family="Inter, 'Segoe UI', Arial, sans-serif" font-size="14.5" font-weight="600" fill="#334155" text-anchor="start">React</text>
<rect x="488.9" y="353.3" width="74.9" height="32.0" rx="16" fill="#F8FAFC" stroke="#E2E8F0" stroke-width="1.2"/>
<svg x="498.9" y="359.8" width="19" height="19" viewBox="0 0 24 24" fill="#9135FF"><path d="M13.056 23.238a.57.57 0 0 1-1.02-.355v-5.202c0-.63-.512-1.143-1.144-1.143H5.148a.57.57 0 0 1-.464-.903l3.777-5.29c.54-.753 0-1.804-.93-1.804H.57a.574.574 0 0 1-.543-.746.6.6 0 0 1 .08-.157L5.008.78a.57.57 0 0 1 .467-.24h14.589a.57.57 0 0 1 .466.903l-3.778 5.29c-.54.755 0 1.806.93 1.806h5.745c.238 0 .424.138.513.322a.56.56 0 0 1-.063.603z"/></svg>
<text x="524.9" y="374.3" font-family="Inter, 'Segoe UI', Arial, sans-serif" font-size="14.5" font-weight="600" fill="#334155" text-anchor="start">Vite</text>
<rect x="571.8" y="353.3" width="123.6" height="32.0" rx="16" fill="#F8FAFC" stroke="#E2E8F0" stroke-width="1.2"/>
<svg x="581.8" y="359.8" width="19" height="19" viewBox="0 0 24 24" fill="#3178C6"><path d="M1.125 0C.502 0 0 .502 0 1.125v21.75C0 23.498.502 24 1.125 24h21.75c.623 0 1.125-.502 1.125-1.125V1.125C24 .502 23.498 0 22.875 0zm17.363 9.75c.612 0 1.154.037 1.627.111a6.38 6.38 0 0 1 1.306.34v2.458a3.95 3.95 0 0 0-.643-.361 5.093 5.093 0 0 0-.717-.26 5.453 5.453 0 0 0-1.426-.2c-.3 0-.573.028-.819.086a2.1 2.1 0 0 0-.623.242c-.17.104-.3.229-.393.374a.888.888 0 0 0-.14.49c0 .196.053.373.156.529.104.156.252.304.443.444s.423.276.696.41c.273.135.582.274.926.416.47.197.892.407 1.266.628.374.222.695.473.963.753.268.279.472.598.614.957.142.359.214.776.214 1.253 0 .657-.125 1.21-.373 1.656a3.033 3.033 0 0 1-1.012 1.085 4.38 4.38 0 0 1-1.487.596c-.566.12-1.163.18-1.79.18a9.916 9.916 0 0 1-1.84-.164 5.544 5.544 0 0 1-1.512-.493v-2.63a5.033 5.033 0 0 0 3.237 1.2c.333 0 .624-.03.872-.09.249-.06.456-.144.623-.25.166-.108.29-.234.373-.38a1.023 1.023 0 0 0-.074-1.089 2.12 2.12 0 0 0-.537-.5 5.597 5.597 0 0 0-.807-.444 27.72 27.72 0 0 0-1.007-.436c-.918-.383-1.602-.852-2.053-1.405-.45-.553-.676-1.222-.676-2.005 0-.614.123-1.141.369-1.582.246-.441.58-.804 1.004-1.089a4.494 4.494 0 0 1 1.47-.629 7.536 7.536 0 0 1 1.77-.201zm-15.113.188h9.563v2.166H9.506v9.646H6.789v-9.646H3.375z"/></svg>
<text x="607.8" y="374.3" font-family="Inter, 'Segoe UI', Arial, sans-serif" font-size="14.5" font-weight="600" fill="#334155" text-anchor="start">TypeScript</text>
<rect x="370.0" y="483.3" width="490.0" height="235.3" rx="18" fill="#FFFFFF" stroke="#CBD5E1" stroke-width="1.8" filter="url(#shadow)"/>
<circle cx="418" cy="531.3" r="27" fill="#DBEAFE"/>
<g transform="translate(402.0,515.3) scale(1.3333)" fill="none" stroke="#2563EB" stroke-width="2" stroke-linecap="round" stroke-linejoin="round"><rect width="20" height="8" x="2" y="2" rx="2" ry="2" /> <rect width="20" height="8" x="2" y="14" rx="2" ry="2" /> <line x1="6" x2="6.01" y1="6" y2="6" /> <line x1="6" x2="6.01" y1="18" y2="18" /></g>
<text x="460.0" y="523.3" font-family="Inter, 'Segoe UI', Arial, sans-serif" font-size="14" font-weight="700" fill="#64748B" text-anchor="start" letter-spacing="1.4">CONTENEDOR</text>
<text x="460.0" y="553.3" font-family="Inter, 'Segoe UI', Arial, sans-serif" font-size="25" font-weight="700" fill="#0F172A" text-anchor="start">Servidor de la aplicación</text>
<text x="394.0" y="591.3" font-family="Inter, 'Segoe UI', Arial, sans-serif" font-size="17.5" font-weight="400" fill="#475569" text-anchor="start">Cuentas y sesiones, proyectos y conversaciones,</text>
<text x="394.0" y="614.4" font-family="Inter, 'Segoe UI', Arial, sans-serif" font-size="17.5" font-weight="400" fill="#475569" text-anchor="start">llaves de IA cifradas y catálogo de circuitos. Lanza</text>
<text x="394.0" y="637.5" font-family="Inter, 'Segoe UI', Arial, sans-serif" font-size="17.5" font-weight="400" fill="#475569" text-anchor="start">cada corrida y reenvía su avance.</text>
<rect x="394.0" y="658.6" width="74.3" height="32.0" rx="16" fill="#F8FAFC" stroke="#E2E8F0" stroke-width="1.2"/>
<svg x="404.0" y="665.1" width="19" height="19" viewBox="0 0 24 24" fill="#111111"><path d="M12 22.596c6.628 0 12-4.338 12-9.688 0-3.318-2.057-6.248-5.219-7.986-1.286-.715-2.297-1.357-3.139-1.89C14.058 2.025 13.08 1.404 12 1.404c-1.097 0-2.334.785-3.966 1.821a49.92 49.92 0 0 1-2.816 1.697C2.057 6.66 0 9.59 0 12.908c0 5.35 5.372 9.687 12 9.687v.001ZM10.599 4.715c.334-.759.503-1.58.498-2.409 0-.145.202-.187.23-.029.658 2.783-.902 4.162-2.057 4.624-.124.048-.199-.121-.103-.209a5.763 5.763 0 0 0 1.432-1.977Zm2.058-.102a5.82 5.82 0 0 0-.782-2.306v-.016c-.069-.123.086-.263.185-.172 1.962 2.111 1.307 4.067.556 5.051-.082.103-.23-.003-.189-.126a5.85 5.85 0 0 0 .23-2.431Zm1.776-.561a5.727 5.727 0 0 0-1.612-1.806v-.014c-.112-.085-.024-.274.114-.218 2.595 1.087 2.774 3.18 2.459 4.407a.116.116 0 0 1-.049.071.11.11 0 0 1-.153-.026.122.122 0 0 1-.022-.083 5.891 5.891 0 0 0-.737-2.331Zm-5.087.561c-.617.546-1.282.76-2.063 1-.117 0-.195-.078-.156-.181 1.752-.909 2.376-1.649 2.999-2.778 0 0 .155-.118.188.085 0 .304-.349 1.329-.968 1.874Zm4.945 11.237a2.957 2.957 0 0 1-.937 1.553c-.346.346-.8.565-1.286.62a2.178 2.178 0 0 1-1.327-.62 2.955 2.955 0 0 1-.925-1.553.244.244 0 0 1 .064-.198.234.234 0 0 1 .193-.069h3.965a.226.226 0 0 1 .19.07c.05.053.073.125.063.197Zm-5.458-2.176a1.862 1.862 0 0 1-2.384-.245 1.98 1.98 0 0 1-.233-2.447c.207-.319.503-.566.848-.713a1.84 1.84 0 0 1 1.092-.11c.366.075.703.261.967.531a1.98 1.98 0 0 1 .408 2.114 1.931 1.931 0 0 1-.698.869v.001Zm8.495.005a1.86 1.86 0 0 1-2.381-.253 1.964 1.964 0 0 1-.547-1.366c0-.384.11-.76.32-1.079.207-.319.503-.567.849-.713a1.844 1.844 0 0 1 1.093-.108c.367.076.704.262.968.534a1.98 1.98 0 0 1 .4 2.117 1.932 1.932 0 0 1-.702.868Z"/></svg>
<text x="430.0" y="679.6" font-family="Inter, 'Segoe UI', Arial, sans-serif" font-size="14.5" font-weight="600" fill="#334155" text-anchor="start">Bun</text>
<rect x="476.3" y="658.6" width="84.3" height="32.0" rx="16" fill="#F8FAFC" stroke="#E2E8F0" stroke-width="1.2"/>
<svg x="486.3" y="665.1" width="19" height="19" viewBox="0 0 24 24" fill="#E36002"><path d="M12.445.002a45.529 45.529 0 0 0-5.252 8.146 8.595 8.595 0 0 1-.555-.53 27.796 27.796 0 0 0-1.205-1.542 8.762 8.762 0 0 0-1.251 2.12 20.743 20.743 0 0 0-1.448 5.88 8.867 8.867 0 0 0 .338 3.468c1.312 3.48 3.794 5.593 7.445 6.337 3.055.438 5.755-.333 8.097-2.312 2.677-2.59 3.359-5.634 2.047-9.132a33.287 33.287 0 0 0-2.988-5.59A91.34 91.34 0 0 0 12.615.053a.216.216 0 0 0-.17-.051Zm-.336 3.906a50.93 50.93 0 0 1 4.794 6.552c.448.767.817 1.57 1.108 2.41.606 2.386-.044 4.354-1.951 5.904-1.845 1.298-3.87 1.683-6.072 1.156-2.376-.737-3.75-2.335-4.121-4.794a5.107 5.107 0 0 1 .242-2.266c.358-.908.79-1.774 1.3-2.601l1.446-2.121a397.33 397.33 0 0 0 3.254-4.24Z"/></svg>
<text x="512.3" y="679.6" font-family="Inter, 'Segoe UI', Arial, sans-serif" font-size="14.5" font-weight="600" fill="#334155" text-anchor="start">Hono</text>
<rect x="568.7" y="658.6" width="95.9" height="32.0" rx="16" fill="#F8FAFC" stroke="#E2E8F0" stroke-width="1.2"/>
<rect x="575.7" y="662.1" width="25" height="25" rx="6" fill="#1E1E1E"/>
<svg x="578.7" y="665.1" width="19" height="19" viewBox="0 0 24 24" fill="#C5F74F"><path d="M5.353 11.823a1.036 1.036 0 0 0-.395-1.422 1.063 1.063 0 0 0-1.437.399L.138 16.702a1.035 1.035 0 0 0 .395 1.422 1.063 1.063 0 0 0 1.437-.398l3.383-5.903Zm11.216 0a1.036 1.036 0 0 0-.394-1.422 1.064 1.064 0 0 0-1.438.399l-3.382 5.902a1.036 1.036 0 0 0 .394 1.422c.506.283 1.15.104 1.438-.398l3.382-5.903Zm7.293-4.525a1.036 1.036 0 0 0-.395-1.422 1.062 1.062 0 0 0-1.437.399l-3.383 5.902a1.036 1.036 0 0 0 .395 1.422 1.063 1.063 0 0 0 1.437-.399l3.383-5.902Zm-11.219 0a1.035 1.035 0 0 0-.394-1.422 1.064 1.064 0 0 0-1.438.398l-3.382 5.903a1.036 1.036 0 0 0 .394 1.422c.506.282 1.15.104 1.438-.399l3.382-5.902Z"/></svg>
<text x="604.7" y="679.6" font-family="Inter, 'Segoe UI', Arial, sans-serif" font-size="14.5" font-weight="600" fill="#334155" text-anchor="start">Drizzle</text>
<rect x="672.6" y="658.6" width="126.2" height="32.0" rx="16" fill="#F8FAFC" stroke="#E2E8F0" stroke-width="1.2"/>
<svg x="682.6" y="665.1" width="19" height="19" viewBox="0 0 24 24" fill="#111111"><path d="M0 3.39v17.22h5.783V15.06h6.434V8.939H5.783V3.39ZM12.217 8.94h5.638v6.122h-5.638v5.548H24V3.391H12.217Z"/></svg>
<text x="708.6" y="679.6" font-family="Inter, 'Segoe UI', Arial, sans-serif" font-size="14.5" font-weight="600" fill="#334155" text-anchor="start">Better Auth</text>
<rect x="370.0" y="788.6" width="490.0" height="212.2" rx="18" fill="#FFFFFF" stroke="#CBD5E1" stroke-width="1.8" filter="url(#shadow)"/>
<circle cx="418" cy="836.6" r="27" fill="#E2E8F0"/>
<g transform="translate(402.0,820.6) scale(1.3333)" fill="none" stroke="#475569" stroke-width="2" stroke-linecap="round" stroke-linejoin="round"><ellipse cx="12" cy="5" rx="9" ry="3" /> <path d="M3 5V19A9 3 0 0 0 21 19V5" /> <path d="M3 12A9 3 0 0 0 21 12" /></g>
<text x="460.0" y="828.6" font-family="Inter, 'Segoe UI', Arial, sans-serif" font-size="14" font-weight="700" fill="#64748B" text-anchor="start" letter-spacing="1.4">CONTENEDOR</text>
<text x="460.0" y="858.6" font-family="Inter, 'Segoe UI', Arial, sans-serif" font-size="25" font-weight="700" fill="#0F172A" text-anchor="start">Base de datos</text>
<text x="394.0" y="896.6" font-family="Inter, 'Segoe UI', Arial, sans-serif" font-size="17.5" font-weight="400" fill="#475569" text-anchor="start">Usuarios, conversaciones, resultados, catálogo,</text>
<text x="394.0" y="919.7" font-family="Inter, 'Segoe UI', Arial, sans-serif" font-size="17.5" font-weight="400" fill="#475569" text-anchor="start">llaves cifradas y puntos de control.</text>
<rect x="394.0" y="940.8" width="130.0" height="32.0" rx="16" fill="#F8FAFC" stroke="#E2E8F0" stroke-width="1.2"/>
<svg x="404.0" y="947.3" width="19" height="19" viewBox="0 0 24 24" fill="#4169E1"><path d="M23.5594 14.7228a.5269.5269 0 0 0-.0563-.1191c-.139-.2632-.4768-.3418-1.0074-.2321-1.6533.3411-2.2935.1312-2.5256-.0191 1.342-2.0482 2.445-4.522 3.0411-6.8297.2714-1.0507.7982-3.5237.1222-4.7316a1.5641 1.5641 0 0 0-.1509-.235C21.6931.9086 19.8007.0248 17.5099.0005c-1.4947-.0158-2.7705.3461-3.1161.4794a9.449 9.449 0 0 0-.5159-.0816 8.044 8.044 0 0 0-1.3114-.1278c-1.1822-.0184-2.2038.2642-3.0498.8406-.8573-.3211-4.7888-1.645-7.2219.0788C.9359 2.1526.3086 3.8733.4302 6.3043c.0409.818.5069 3.334 1.2423 5.7436.4598 1.5065.9387 2.7019 1.4334 3.582.553.9942 1.1259 1.5933 1.7143 1.7895.4474.1491 1.1327.1441 1.8581-.7279.8012-.9635 1.5903-1.8258 1.9446-2.2069.4351.2355.9064.3625 1.39.3772a.0569.0569 0 0 0 .0004.0041 11.0312 11.0312 0 0 0-.2472.3054c-.3389.4302-.4094.5197-1.5002.7443-.3102.064-1.1344.2339-1.1464.8115-.0025.1224.0329.2309.0919.3268.2269.4231.9216.6097 1.015.6331 1.3345.3335 2.5044.092 3.3714-.6787-.017 2.231.0775 4.4174.3454 5.0874.2212.5529.7618 1.9045 2.4692 1.9043.2505 0 .5263-.0291.8296-.0941 1.7819-.3821 2.5557-1.1696 2.855-2.9059.1503-.8707.4016-2.8753.5388-4.1012.0169-.0703.0357-.1207.057-.1362.0007-.0005.0697-.0471.4272.0307a.3673.3673 0 0 0 .0443.0068l.2539.0223.0149.001c.8468.0384 1.9114-.1426 2.5312-.4308.6438-.2988 1.8057-1.0323 1.5951-1.6698zM2.371 11.8765c-.7435-2.4358-1.1779-4.8851-1.2123-5.5719-.1086-2.1714.4171-3.6829 1.5623-4.4927 1.8367-1.2986 4.8398-.5408 6.108-.13-.0032.0032-.0066.0061-.0098.0094-2.0238 2.044-1.9758 5.536-1.9708 5.7495-.0002.0823.0066.1989.0162.3593.0348.5873.0996 1.6804-.0735 2.9184-.1609 1.1504.1937 2.2764.9728 3.0892.0806.0841.1648.1631.2518.2374-.3468.3714-1.1004 1.1926-1.9025 2.1576-.5677.6825-.9597.5517-1.0886.5087-.3919-.1307-.813-.5871-1.2381-1.3223-.4796-.839-.9635-2.0317-1.4155-3.5126zm6.0072 5.0871c-.1711-.0428-.3271-.1132-.4322-.1772.0889-.0394.2374-.0902.4833-.1409 1.2833-.2641 1.4815-.4506 1.9143-1.0002.0992-.126.2116-.2687.3673-.4426a.3549.3549 0 0 0 .0737-.1298c.1708-.1513.2724-.1099.4369-.0417.156.0646.3078.26.3695.4752.0291.1016.0619.2945-.0452.4444-.9043 1.2658-2.2216 1.2494-3.1676 1.0128zm2.094-3.988-.0525.141c-.133.3566-.2567.6881-.3334 1.003-.6674-.0021-1.3168-.2872-1.8105-.8024-.6279-.6551-.9131-1.5664-.7825-2.5004.1828-1.3079.1153-2.4468.079-3.0586-.005-.0857-.0095-.1607-.0122-.2199.2957-.2621 1.6659-.9962 2.6429-.7724.4459.1022.7176.4057.8305.928.5846 2.7038.0774 3.8307-.3302 4.7363-.084.1866-.1633.3629-.2311.5454zm7.3637 4.5725c-.0169.1768-.0358.376-.0618.5959l-.146.4383a.3547.3547 0 0 0-.0182.1077c-.0059.4747-.054.6489-.115.8693-.0634.2292-.1353.4891-.1794 1.0575-.11 1.4143-.8782 2.2267-2.4172 2.5565-1.5155.3251-1.7843-.4968-2.0212-1.2217a6.5824 6.5824 0 0 0-.0769-.2266c-.2154-.5858-.1911-1.4119-.1574-2.5551.0165-.5612-.0249-1.9013-.3302-2.6462.0044-.2932.0106-.5909.019-.8918a.3529.3529 0 0 0-.0153-.1126 1.4927 1.4927 0 0 0-.0439-.208c-.1226-.4283-.4213-.7866-.7797-.9351-.1424-.059-.4038-.1672-.7178-.0869.067-.276.1831-.5875.309-.9249l.0529-.142c.0595-.16.134-.3257.213-.5012.4265-.9476 1.0106-2.2453.3766-5.1772-.2374-1.0981-1.0304-1.6343-2.2324-1.5098-.7207.0746-1.3799.3654-1.7088.5321a5.6716 5.6716 0 0 0-.1958.1041c.0918-1.1064.4386-3.1741 1.7357-4.4823a4.0306 4.0306 0 0 1 .3033-.276.3532.3532 0 0 0 .1447-.0644c.7524-.5706 1.6945-.8506 2.802-.8325.4091.0067.8017.0339 1.1742.081 1.939.3544 3.2439 1.4468 4.0359 2.3827.8143.9623 1.2552 1.9315 1.4312 2.4543-1.3232-.1346-2.2234.1268-2.6797.779-.9926 1.4189.543 4.1729 1.2811 5.4964.1353.2426.2522.4522.2889.5413.2403.5825.5515.9713.7787 1.2552.0696.087.1372.1714.1885.245-.4008.1155-1.1208.3825-1.0552 1.717-.0123.1563-.0423.4469-.0834.8148-.0461.2077-.0702.4603-.0994.7662zm.8905-1.6211c-.0405-.8316.2691-.9185.5967-1.0105a2.8566 2.8566 0 0 0 .135-.0406 1.202 1.202 0 0 0 .1342.103c.5703.3765 1.5823.4213 3.0068.1344-.2016.1769-.5189.3994-.9533.6011-.4098.1903-1.0957.333-1.7473.3636-.7197.0336-1.0859-.0807-1.1721-.151zm.5695-9.2712c-.0059.3508-.0542.6692-.1054 1.0017-.055.3576-.112.7274-.1264 1.1762-.0142.4368.0404.8909.0932 1.3301.1066.887.216 1.8003-.2075 2.7014a3.5272 3.5272 0 0 1-.1876-.3856c-.0527-.1276-.1669-.3326-.3251-.6162-.6156-1.1041-2.0574-3.6896-1.3193-4.7446.3795-.5427 1.3408-.5661 2.1781-.463zm.2284 7.0137a12.3762 12.3762 0 0 0-.0853-.1074l-.0355-.0444c.7262-1.1995.5842-2.3862.4578-3.4385-.0519-.4318-.1009-.8396-.0885-1.2226.0129-.4061.0666-.7543.1185-1.0911.0639-.415.1288-.8443.1109-1.3505.0134-.0531.0188-.1158.0118-.1902-.0457-.4855-.5999-1.938-1.7294-3.253-.6076-.7073-1.4896-1.4972-2.6889-2.0395.5251-.1066 1.2328-.2035 2.0244-.1859 2.0515.0456 3.6746.8135 4.8242 2.2824a.908.908 0 0 1 .0667.1002c.7231 1.3556-.2762 6.2751-2.9867 10.5405zm-8.8166-6.1162c-.025.1794-.3089.4225-.6211.4225a.5821.5821 0 0 1-.0809-.0056c-.1873-.026-.3765-.144-.5059-.3156-.0458-.0605-.1203-.178-.1055-.2844.0055-.0401.0261-.0985.0925-.1488.1182-.0894.3518-.1226.6096-.0867.3163.0441.6426.1938.6113.4186zm7.9305-.4114c.0111.0792-.049.201-.1531.3102-.0683.0717-.212.1961-.4079.2232a.5456.5456 0 0 1-.075.0052c-.2935 0-.5414-.2344-.5607-.3717-.024-.1765.2641-.3106.5611-.352.297-.0414.6111.0088.6356.1851z"/></svg>
<text x="430.0" y="961.8" font-family="Inter, 'Segoe UI', Arial, sans-serif" font-size="14.5" font-weight="600" fill="#334155" text-anchor="start">PostgreSQL</text>
<rect x="532.0" y="940.8" width="84.3" height="32.0" rx="16" fill="#F8FAFC" stroke="#E2E8F0" stroke-width="1.2"/>
<svg x="542.0" y="947.3" width="19" height="19" viewBox="0 0 24 24" fill="#00C08B"><path d="M24 0V24l-9.365-8.045V24H0V0ZM2.942 21.087h8.751V9.563l9.365 8.204V2.919L2.942 2.914Z"/></svg>
<text x="568.0" y="961.8" font-family="Inter, 'Segoe UI', Arial, sans-serif" font-size="14.5" font-weight="600" fill="#334155" text-anchor="start">Neon</text>
<rect x="1012.0" y="413.3" width="398.0" height="434.2" rx="18" fill="#FAF8FF" stroke="#C4B5FD" stroke-width="1.8" filter="url(#shadow)"/>
<circle cx="1060" cy="461.3" r="27" fill="#EDE9FE"/>
<g transform="translate(1044.0,445.3) scale(1.3333)" fill="none" stroke="#6D28D9" stroke-width="2" stroke-linecap="round" stroke-linejoin="round"><path d="M12 8V4H8" /> <rect width="16" height="12" x="4" y="8" rx="2" /> <path d="M2 14h2" /> <path d="M20 14h2" /> <path d="M15 13v2" /> <path d="M9 13v2" /></g>
<text x="1102.0" y="453.3" font-family="Inter, 'Segoe UI', Arial, sans-serif" font-size="14" font-weight="700" fill="#7C3AED" text-anchor="start" letter-spacing="1.4">CONTENEDOR</text>
<text x="1102.0" y="483.3" font-family="Inter, 'Segoe UI', Arial, sans-serif" font-size="25" font-weight="700" fill="#0F172A" text-anchor="start">Servicio de agentes</text>
<text x="1036.0" y="521.3" font-family="Inter, 'Segoe UI', Arial, sans-serif" font-size="17.5" font-weight="400" fill="#475569" text-anchor="start">Los seis agentes del sistema, coordinados</text>
<text x="1036.0" y="544.4" font-family="Inter, 'Segoe UI', Arial, sans-serif" font-size="17.5" font-weight="400" fill="#475569" text-anchor="start">en un grafo:</text>
<rect x="1036.0" y="787.5" width="96.9" height="32.0" rx="16" fill="#F8FAFC" stroke="#E2E8F0" stroke-width="1.2"/>
<svg x="1046.0" y="794.0" width="19" height="19" viewBox="0 0 24 24" fill="#3776AB"><path d="M14.25.18l.9.2.73.26.59.3.45.32.34.34.25.34.16.33.1.3.04.26.02.2-.01.13V8.5l-.05.63-.13.55-.21.46-.26.38-.3.31-.33.25-.35.19-.35.14-.33.1-.3.07-.26.04-.21.02H8.77l-.69.05-.59.14-.5.22-.41.27-.33.32-.27.35-.2.36-.15.37-.1.35-.07.32-.04.27-.02.21v3.06H3.17l-.21-.03-.28-.07-.32-.12-.35-.18-.36-.26-.36-.36-.35-.46-.32-.59-.28-.73-.21-.88-.14-1.05-.05-1.23.06-1.22.16-1.04.24-.87.32-.71.36-.57.4-.44.42-.33.42-.24.4-.16.36-.1.32-.05.24-.01h.16l.06.01h8.16v-.83H6.18l-.01-2.75-.02-.37.05-.34.11-.31.17-.28.25-.26.31-.23.38-.2.44-.18.51-.15.58-.12.64-.1.71-.06.77-.04.84-.02 1.27.05zm-6.3 1.98l-.23.33-.08.41.08.41.23.34.33.22.41.09.41-.09.33-.22.23-.34.08-.41-.08-.41-.23-.33-.33-.22-.41-.09-.41.09zm13.09 3.95l.28.06.32.12.35.18.36.27.36.35.35.47.32.59.28.73.21.88.14 1.04.05 1.23-.06 1.23-.16 1.04-.24.86-.32.71-.36.57-.4.45-.42.33-.42.24-.4.16-.36.09-.32.05-.24.02-.16-.01h-8.22v.82h5.84l.01 2.76.02.36-.05.34-.11.31-.17.29-.25.25-.31.24-.38.2-.44.17-.51.15-.58.13-.64.09-.71.07-.77.04-.84.01-1.27-.04-1.07-.14-.9-.2-.73-.25-.59-.3-.45-.33-.34-.34-.25-.34-.16-.33-.1-.3-.04-.25-.02-.2.01-.13v-5.34l.05-.64.13-.54.21-.46.26-.38.3-.32.33-.24.35-.2.35-.14.33-.1.3-.06.26-.04.21-.02.13-.01h5.84l.69-.05.59-.14.5-.21.41-.28.33-.32.27-.35.2-.36.15-.36.1-.35.07-.32.04-.28.02-.21V6.07h2.09l.14.01zm-6.47 14.25l-.23.33-.08.41.08.41.23.33.33.23.41.08.41-.08.33-.23.23-.33.08-.41-.08-.41-.23-.33-.33-.23-.41-.08-.41.08z"/></svg>
<text x="1072.0" y="808.5" font-family="Inter, 'Segoe UI', Arial, sans-serif" font-size="14.5" font-weight="600" fill="#334155" text-anchor="start">Python</text>
<rect x="1140.9" y="787.5" width="124.2" height="32.0" rx="16" fill="#F8FAFC" stroke="#E2E8F0" stroke-width="1.2"/>
<svg x="1150.9" y="794.0" width="19" height="19" viewBox="0 0 24 24"><path clip-rule="evenodd" d="M6.099 6H17.9C21.264 6 24 8.692 24 12s-2.736 6-6.099 6H6.1C2.736 18 0 15.308 0 12s2.736-6 6.099-6zm5.419 9.3c.148.154.367.146.561.106l.002.001c.09-.072-.038-.163-.16-.25-.074-.052-.145-.102-.166-.147.068-.08-.133-.265-.289-.408a1.52 1.52 0 01-.15-.148c-.11-.119-.155-.268-.2-.418-.03-.1-.06-.2-.11-.292-.304-.694-.653-1.383-1.143-1.97-.315-.39-.674-.74-1.033-1.09a19.384 19.384 0 01-.683-.688c-.226-.229-.362-.511-.499-.794-.114-.236-.228-.473-.396-.68-.507-.735-2.107-.936-2.342.104 0 .032-.01.052-.039.073-.13.094-.245.2-.342.327-.238.326-.274.877.022 1.17l.001-.019c.01-.147.02-.286.139-.391.228.193.576.262.841.117.32.45.422.995.525 1.54.085.456.17.912.382 1.316l.014.022c.124.203.25.41.41.587.059.089.178.184.297.279.157.125.314.25.329.359v.143c-.001.285-.002.58.184.813.103.205-.15.41-.352.385-.112.015-.233-.014-.354-.042-.165-.04-.329-.078-.462-.003-.038.04-.091.04-.145.042-.064.002-.129.004-.167.07-.008.019-.026.04-.045.063-.042.05-.087.105-.033.146l.015-.01c.082-.062.16-.12.27-.084-.014.08.039.102.092.123l.027.012a.344.344 0 01-.008.056c-.009.045-.017.088.018.127a.598.598 0 00.046-.054c.037-.046.073-.092.139-.11.144.19.289.111.471.013.206-.111.459-.248.81-.055-.135-.006-.255.01-.345.12-.023.024-.042.052-.002.084.207-.132.294-.085.375-.04.06.032.115.063.212.024l.07-.036c.155-.083.314-.166.499-.137-.139.039-.188.125-.242.218-.026.047-.054.095-.094.14-.021.021-.03.046-.007.08.29-.023.4-.095.548-.192.07-.046.15-.099.261-.154.124-.075.248-.027.368.02.13.05.255.098.371-.014.037-.033.083-.034.129-.034.016 0 .033 0 .05-.002-.037-.19-.24-.188-.448-.186-.24.003-.483.006-.475-.289.222-.149.224-.407.226-.651 0-.06 0-.117.005-.173.163.09.336.16.508.229.162.065.323.13.474.21.158.25.404.58.732.558.008-.026.016-.047.026-.073.019.004.039.008.059.014.086.02.178.044.223-.056zm6.429-2.829c.19.186.447.29.716.29.269 0 .526-.104.716-.29a.98.98 0 00.297-.7.98.98 0 00-.297-.7 1.024 1.024 0 00-1.08-.224l-.58-.831-.405.272.583.835a.978.978 0 00.05 1.348zm-1.817-2.69a1.03 1.03 0 001.056-.095.991.991 0 00.363-.507.97.97 0 00-.016-.62.994.994 0 00-.39-.488 1.028 1.028 0 00-1.298.14.987.987 0 00-.263.856.98.98 0 00.187.42c.095.125.218.225.36.294zm0 5.752a1.032 1.032 0 001.056-.095.991.991 0 00.363-.507.97.97 0 00-.016-.62.994.994 0 00-.39-.488 1.027 1.027 0 00-1.298.14.986.986 0 00-.263.856.98.98 0 00.187.42c.095.125.218.225.36.294zm.93-3.516v-.492h-1.55a.977.977 0 00-.217-.404l.584-.847-.425-.276-.583.847a1.023 1.023 0 00-1.047.23.973.973 0 00-.296.696c0 .261.107.512.296.696a1.023 1.023 0 001.047.23l.583.847.42-.276-.579-.847a.977.977 0 00.217-.404h1.55z" fill="#1C3C3C" fill-rule="evenodd"></path></svg>
<text x="1176.9" y="808.5" font-family="Inter, 'Segoe UI', Arial, sans-serif" font-size="14.5" font-weight="600" fill="#334155" text-anchor="start">LangGraph</text>
<rect x="1273.0" y="787.5" width="100.6" height="32.0" rx="16" fill="#F8FAFC" stroke="#E2E8F0" stroke-width="1.2"/>
<svg x="1283.0" y="794.0" width="19" height="19" viewBox="0 0 24 24" fill="#009688"><path d="M12 .0387C5.3729.0384.0003 5.3931 0 11.9988c-.001 6.6066 5.372 11.9628 12 11.9625 6.628.0003 12.001-5.3559 12-11.9625-.0003-6.6057-5.3729-11.9604-12-11.96m-.829 5.4153h7.55l-7.5805 5.3284h5.1828L5.279 18.5436q2.9466-6.5444 5.892-13.0896"/></svg>
<text x="1309.0" y="808.5" font-family="Inter, 'Segoe UI', Arial, sans-serif" font-size="14.5" font-weight="600" fill="#334155" text-anchor="start">FastAPI</text>
<rect x="1036.0" y="567.5" width="170.0" height="34.0" rx="10" fill="#FFFFFF" stroke="#DDD6FE" stroke-width="1.3"/>
<circle cx="1053.0" cy="584.5" r="10" fill="#6D28D9"/>
<text x="1053.0" y="589.5" font-family="Inter, 'Segoe UI', Arial, sans-serif" font-size="13" font-weight="700" fill="#FFFFFF" text-anchor="middle">1</text>
<text x="1070.0" y="590.0" font-family="Inter, 'Segoe UI', Arial, sans-serif" font-size="15.5" font-weight="600" fill="#1E293B" text-anchor="start">Orquestador</text>
<rect x="1216.0" y="567.5" width="170.0" height="34.0" rx="10" fill="#FFFFFF" stroke="#DDD6FE" stroke-width="1.3"/>
<circle cx="1233.0" cy="584.5" r="10" fill="#6D28D9"/>
<text x="1233.0" y="589.5" font-family="Inter, 'Segoe UI', Arial, sans-serif" font-size="13" font-weight="700" fill="#FFFFFF" text-anchor="middle">2</text>
<text x="1250.0" y="590.0" font-family="Inter, 'Segoe UI', Arial, sans-serif" font-size="15.5" font-weight="600" fill="#1E293B" text-anchor="start">Cálculo</text>
<rect x="1036.0" y="610.5" width="170.0" height="34.0" rx="10" fill="#FFFFFF" stroke="#DDD6FE" stroke-width="1.3"/>
<circle cx="1053.0" cy="627.5" r="10" fill="#6D28D9"/>
<text x="1053.0" y="632.5" font-family="Inter, 'Segoe UI', Arial, sans-serif" font-size="13" font-weight="700" fill="#FFFFFF" text-anchor="middle">3</text>
<text x="1070.0" y="633.0" font-family="Inter, 'Segoe UI', Arial, sans-serif" font-size="15.5" font-weight="600" fill="#1E293B" text-anchor="start">Escritura</text>
<rect x="1216.0" y="610.5" width="170.0" height="34.0" rx="10" fill="#FFFFFF" stroke="#DDD6FE" stroke-width="1.3"/>
<circle cx="1233.0" cy="627.5" r="10" fill="#6D28D9"/>
<text x="1233.0" y="632.5" font-family="Inter, 'Segoe UI', Arial, sans-serif" font-size="13" font-weight="700" fill="#FFFFFF" text-anchor="middle">4</text>
<text x="1250.0" y="633.0" font-family="Inter, 'Segoe UI', Arial, sans-serif" font-size="15.5" font-weight="600" fill="#1E293B" text-anchor="start">Simulación</text>
<rect x="1036.0" y="653.5" width="170.0" height="34.0" rx="10" fill="#FFFFFF" stroke="#DDD6FE" stroke-width="1.3"/>
<circle cx="1053.0" cy="670.5" r="10" fill="#6D28D9"/>
<text x="1053.0" y="675.5" font-family="Inter, 'Segoe UI', Arial, sans-serif" font-size="13" font-weight="700" fill="#FFFFFF" text-anchor="middle">5</text>
<text x="1070.0" y="676.0" font-family="Inter, 'Segoe UI', Arial, sans-serif" font-size="15.5" font-weight="600" fill="#1E293B" text-anchor="start">Curador</text>
<rect x="1216.0" y="653.5" width="170.0" height="34.0" rx="10" fill="#FFFFFF" stroke="#DDD6FE" stroke-width="1.3"/>
<circle cx="1233.0" cy="670.5" r="10" fill="#6D28D9"/>
<text x="1233.0" y="675.5" font-family="Inter, 'Segoe UI', Arial, sans-serif" font-size="13" font-weight="700" fill="#FFFFFF" text-anchor="middle">6</text>
<text x="1250.0" y="676.0" font-family="Inter, 'Segoe UI', Arial, sans-serif" font-size="15.5" font-weight="600" fill="#1E293B" text-anchor="start">Documentador</text>
<rect x="1036.0" y="701.5" width="350.0" height="70.0" rx="12" fill="#FFFFFF" stroke="#FDBA74" stroke-width="1.4"/>
<circle cx="1070" cy="736.5" r="21" fill="#FFEDD5"/>
<g transform="translate(1058.0,724.5) scale(1.0000)" fill="none" stroke="#EA580C" stroke-width="2.2" stroke-linecap="round" stroke-linejoin="round"><path d="M22 12h-2.48a2 2 0 0 0-1.93 1.46l-2.35 8.36a.25.25 0 0 1-.48 0L9.24 2.18a.25.25 0 0 0-.48 0l-2.35 8.36A2 2 0 0 1 4.49 12H2" /></g>
<text x="1104.0" y="731.5" font-family="Inter, 'Segoe UI', Arial, sans-serif" font-size="18" font-weight="700" fill="#0F172A" text-anchor="start">Simulador ngspice</text>
<text x="1104.0" y="753.5" font-family="Inter, 'Segoe UI', Arial, sans-serif" font-size="15" font-weight="400" fill="#475569" text-anchor="start">se ejecuta dentro del servicio</text>
<rect x="1548.0" y="200.0" width="348.0" height="292.2" rx="18" fill="#FFFFFF" stroke="#94A3B8" stroke-width="1.8" stroke-dasharray="8 6"/>
<circle cx="1596" cy="248" r="27" fill="#FEF3C7"/>
<g transform="translate(1580.0,232.0) scale(1.3333)" fill="none" stroke="#B45309" stroke-width="2" stroke-linecap="round" stroke-linejoin="round"><path d="M17.5 19H9a7 7 0 1 1 6.71-9h1.79a4.5 4.5 0 1 1 0 9Z" /></g>
<text x="1638.0" y="240.0" font-family="Inter, 'Segoe UI', Arial, sans-serif" font-size="14" font-weight="700" fill="#64748B" text-anchor="start" letter-spacing="1.4">SISTEMA EXTERNO</text>
<text x="1638.0" y="270.0" font-family="Inter, 'Segoe UI', Arial, sans-serif" font-size="25" font-weight="700" fill="#0F172A" text-anchor="start">Proveedor de IA</text>
<text x="1572.0" y="308.0" font-family="Inter, 'Segoe UI', Arial, sans-serif" font-size="17.5" font-weight="400" fill="#475569" text-anchor="start">En la nube o local; el estudiante</text>
<text x="1572.0" y="331.1" font-family="Inter, 'Segoe UI', Arial, sans-serif" font-size="17.5" font-weight="400" fill="#475569" text-anchor="start">elige cuál usa cada agente.</text>
<rect x="1572.0" y="352.2" width="116.0" height="32.0" rx="16" fill="#F8FAFC" stroke="#E2E8F0" stroke-width="1.2"/>
<svg x="1582.0" y="358.7" width="19" height="19" viewBox="0 0 24 24" fill="#191919" fill-rule="evenodd"><path d="M13.827 3.52h3.603L24 20h-3.603l-6.57-16.48zm-7.258 0h3.767L16.906 20h-3.674l-1.343-3.461H5.017l-1.344 3.46H0L6.57 3.522zm4.132 9.959L8.453 7.687 6.205 13.48H10.7z"></path></svg>
<text x="1608.0" y="373.2" font-family="Inter, 'Segoe UI', Arial, sans-serif" font-size="14.5" font-weight="600" fill="#334155" text-anchor="start">Anthropic</text>
<rect x="1696.0" y="352.2" width="99.2" height="32.0" rx="16" fill="#F8FAFC" stroke="#E2E8F0" stroke-width="1.2"/>
<svg x="1706.0" y="358.7" width="19" height="19" viewBox="0 0 24 24" fill="#111111"><path d="M22.2819 9.8211a5.9847 5.9847 0 0 0-.5157-4.9108 6.0462 6.0462 0 0 0-6.5098-2.9A6.0651 6.0651 0 0 0 4.9807 4.1818a5.9847 5.9847 0 0 0-3.9977 2.9 6.0462 6.0462 0 0 0 .7427 7.0966 5.98 5.98 0 0 0 .511 4.9107 6.051 6.051 0 0 0 6.5146 2.9001A5.9847 5.9847 0 0 0 13.2599 24a6.0557 6.0557 0 0 0 5.7718-4.2058 5.9894 5.9894 0 0 0 3.9977-2.9001 6.0557 6.0557 0 0 0-.7475-7.0729zm-9.022 12.6081a4.4755 4.4755 0 0 1-2.8764-1.0408l.1419-.0804 4.7783-2.7582a.7948.7948 0 0 0 .3927-.6813v-6.7369l2.02 1.1686a.071.071 0 0 1 .038.052v5.5826a4.504 4.504 0 0 1-4.4945 4.4944zm-9.6607-4.1254a4.4708 4.4708 0 0 1-.5346-3.0137l.142.0852 4.783 2.7582a.7712.7712 0 0 0 .7806 0l5.8428-3.3685v2.3324a.0804.0804 0 0 1-.0332.0615L9.74 19.9502a4.4992 4.4992 0 0 1-6.1408-1.6464zM2.3408 7.8956a4.485 4.485 0 0 1 2.3655-1.9728V11.6a.7664.7664 0 0 0 .3879.6765l5.8144 3.3543-2.0201 1.1685a.0757.0757 0 0 1-.071 0l-4.8303-2.7865A4.504 4.504 0 0 1 2.3408 7.872zm16.5963 3.8558L13.1038 8.364 15.1192 7.2a.0757.0757 0 0 1 .071 0l4.8303 2.7913a4.4944 4.4944 0 0 1-.6765 8.1042v-5.6772a.79.79 0 0 0-.407-.667zm2.0107-3.0231l-.142-.0852-4.7735-2.7818a.7759.7759 0 0 0-.7854 0L9.409 9.2297V6.8974a.0662.0662 0 0 1 .0284-.0615l4.8303-2.7866a4.4992 4.4992 0 0 1 6.6802 4.66zM8.3065 12.863l-2.02-1.1638a.0804.0804 0 0 1-.038-.0567V6.0742a4.4992 4.4992 0 0 1 7.3757-3.4537l-.142.0805L8.704 5.459a.7948.7948 0 0 0-.3927.6813zm1.0976-2.3654l2.602-1.4998 2.6069 1.4998v2.9994l-2.5974 1.4997-2.6067-1.4997Z"/></svg>
<text x="1732.0" y="373.2" font-family="Inter, 'Segoe UI', Arial, sans-serif" font-size="14.5" font-weight="600" fill="#334155" text-anchor="start">OpenAI</text>
<rect x="1572.0" y="392.2" width="96.0" height="32.0" rx="16" fill="#F8FAFC" stroke="#E2E8F0" stroke-width="1.2"/>
<svg x="1582.0" y="398.7" width="19" height="19" viewBox="0 0 24 24"><path d="M20.616 10.835a14.147 14.147 0 01-4.45-3.001 14.111 14.111 0 01-3.678-6.452.503.503 0 00-.975 0 14.134 14.134 0 01-3.679 6.452 14.155 14.155 0 01-4.45 3.001c-.65.28-1.318.505-2.002.678a.502.502 0 000 .975c.684.172 1.35.397 2.002.677a14.147 14.147 0 014.45 3.001 14.112 14.112 0 013.679 6.453.502.502 0 00.975 0c.172-.685.397-1.351.677-2.003a14.145 14.145 0 013.001-4.45 14.113 14.113 0 016.453-3.678.503.503 0 000-.975 13.245 13.245 0 01-2.003-.678z" fill="#3186FF"></path><path d="M20.616 10.835a14.147 14.147 0 01-4.45-3.001 14.111 14.111 0 01-3.678-6.452.503.503 0 00-.975 0 14.134 14.134 0 01-3.679 6.452 14.155 14.155 0 01-4.45 3.001c-.65.28-1.318.505-2.002.678a.502.502 0 000 .975c.684.172 1.35.397 2.002.677a14.147 14.147 0 014.45 3.001 14.112 14.112 0 013.679 6.453.502.502 0 00.975 0c.172-.685.397-1.351.677-2.003a14.145 14.145 0 013.001-4.45 14.113 14.113 0 016.453-3.678.503.503 0 000-.975 13.245 13.245 0 01-2.003-.678z" fill="url(#lobe-icons-gemini-0-_R_0_)"></path><path d="M20.616 10.835a14.147 14.147 0 01-4.45-3.001 14.111 14.111 0 01-3.678-6.452.503.503 0 00-.975 0 14.134 14.134 0 01-3.679 6.452 14.155 14.155 0 01-4.45 3.001c-.65.28-1.318.505-2.002.678a.502.502 0 000 .975c.684.172 1.35.397 2.002.677a14.147 14.147 0 014.45 3.001 14.112 14.112 0 013.679 6.453.502.502 0 00.975 0c.172-.685.397-1.351.677-2.003a14.145 14.145 0 013.001-4.45 14.113 14.113 0 016.453-3.678.503.503 0 000-.975 13.245 13.245 0 01-2.003-.678z" fill="url(#lobe-icons-gemini-1-_R_0_)"></path><path d="M20.616 10.835a14.147 14.147 0 01-4.45-3.001 14.111 14.111 0 01-3.678-6.452.503.503 0 00-.975 0 14.134 14.134 0 01-3.679 6.452 14.155 14.155 0 01-4.45 3.001c-.65.28-1.318.505-2.002.678a.502.502 0 000 .975c.684.172 1.35.397 2.002.677a14.147 14.147 0 014.45 3.001 14.112 14.112 0 013.679 6.453.502.502 0 00.975 0c.172-.685.397-1.351.677-2.003a14.145 14.145 0 013.001-4.45 14.113 14.113 0 016.453-3.678.503.503 0 000-.975 13.245 13.245 0 01-2.003-.678z" fill="url(#lobe-icons-gemini-2-_R_0_)"></path><defs><linearGradient gradientUnits="userSpaceOnUse" id="lobe-icons-gemini-0-_R_0_" x1="7" x2="11" y1="15.5" y2="12"><stop stop-color="#08B962"></stop><stop offset="1" stop-color="#08B962" stop-opacity="0"></stop></linearGradient><linearGradient gradientUnits="userSpaceOnUse" id="lobe-icons-gemini-1-_R_0_" x1="8" x2="11.5" y1="5.5" y2="11"><stop stop-color="#F94543"></stop><stop offset="1" stop-color="#F94543" stop-opacity="0"></stop></linearGradient><linearGradient gradientUnits="userSpaceOnUse" id="lobe-icons-gemini-2-_R_0_" x1="3.5" x2="17.5" y1="13.5" y2="12"><stop stop-color="#FABC12"></stop><stop offset=".46" stop-color="#FABC12" stop-opacity="0"></stop></linearGradient></defs></svg>
<text x="1608.0" y="413.2" font-family="Inter, 'Segoe UI', Arial, sans-serif" font-size="14.5" font-weight="600" fill="#334155" text-anchor="start">Gemini</text>
<rect x="1676.0" y="392.2" width="95.5" height="32.0" rx="16" fill="#F8FAFC" stroke="#E2E8F0" stroke-width="1.2"/>
<svg x="1686.0" y="398.7" width="19" height="19" viewBox="0 0 24 24" fill="#111111" fill-rule="evenodd"><path d="M7.905 1.09c.216.085.411.225.588.41.295.306.544.744.734 1.263.191.522.315 1.1.362 1.68a5.054 5.054 0 012.049-.636l.051-.004c.87-.07 1.73.087 2.48.474.101.053.2.11.297.17.05-.569.172-1.134.36-1.644.19-.52.439-.957.733-1.264a1.67 1.67 0 01.589-.41c.257-.1.53-.118.796-.042.401.114.745.368 1.016.737.248.337.434.769.561 1.287.23.934.27 2.163.115 3.645l.053.04.026.019c.757.576 1.284 1.397 1.563 2.35.435 1.487.216 3.155-.534 4.088l-.018.021.002.003c.417.762.67 1.567.724 2.4l.002.03c.064 1.065-.2 2.137-.814 3.19l-.007.01.01.024c.472 1.157.62 2.322.438 3.486l-.006.039a.651.651 0 01-.747.536.648.648 0 01-.54-.742c.167-1.033.01-2.069-.48-3.123a.643.643 0 01.04-.617l.004-.006c.604-.924.854-1.83.8-2.72-.046-.779-.325-1.544-.8-2.273a.644.644 0 01.18-.886l.009-.006c.243-.159.467-.565.58-1.12a4.229 4.229 0 00-.095-1.974c-.205-.7-.58-1.284-1.105-1.683-.595-.454-1.383-.673-2.38-.61a.653.653 0 01-.632-.371c-.314-.665-.772-1.141-1.343-1.436a3.288 3.288 0 00-1.772-.332c-1.245.099-2.343.801-2.67 1.686a.652.652 0 01-.61.425c-1.067.002-1.893.252-2.497.703-.522.39-.878.935-1.066 1.588a4.07 4.07 0 00-.068 1.886c.112.558.331 1.02.582 1.269l.008.007c.212.207.257.53.109.785-.36.622-.629 1.549-.673 2.44-.05 1.018.186 1.902.719 2.536l.016.019a.643.643 0 01.095.69c-.576 1.236-.753 2.252-.562 3.052a.652.652 0 01-1.269.298c-.243-1.018-.078-2.184.473-3.498l.014-.035-.008-.012a4.339 4.339 0 01-.598-1.309l-.005-.019a5.764 5.764 0 01-.177-1.785c.044-.91.278-1.842.622-2.59l.012-.026-.002-.002c-.293-.418-.51-.953-.63-1.545l-.005-.024a5.352 5.352 0 01.093-2.49c.262-.915.777-1.701 1.536-2.269.06-.045.123-.09.186-.132-.159-1.493-.119-2.73.112-3.67.127-.518.314-.95.562-1.287.27-.368.614-.622 1.015-.737.266-.076.54-.059.797.042zm4.116 9.09c.936 0 1.8.313 2.446.855.63.527 1.005 1.235 1.005 1.94 0 .888-.406 1.58-1.133 2.022-.62.375-1.451.557-2.403.557-1.009 0-1.871-.259-2.493-.734-.617-.47-.963-1.13-.963-1.845 0-.707.398-1.417 1.056-1.946.668-.537 1.55-.849 2.485-.849zm0 .896a3.07 3.07 0 00-1.916.65c-.461.37-.722.835-.722 1.25 0 .428.21.829.61 1.134.455.347 1.124.548 1.943.548.799 0 1.473-.147 1.932-.426.463-.28.7-.686.7-1.257 0-.423-.246-.89-.683-1.256-.484-.405-1.14-.643-1.864-.643zm.662 1.21l.004.004c.12.151.095.37-.056.49l-.292.23v.446a.375.375 0 01-.376.373.375.375 0 01-.376-.373v-.46l-.271-.218a.347.347 0 01-.052-.49.353.353 0 01.494-.051l.215.172.22-.174a.353.353 0 01.49.051zm-5.04-1.919c.478 0 .867.39.867.871a.87.87 0 01-.868.871.87.87 0 01-.867-.87.87.87 0 01.867-.872zm8.706 0c.48 0 .868.39.868.871a.87.87 0 01-.868.871.87.87 0 01-.867-.87.87.87 0 01.867-.872zM7.44 2.3l-.003.002a.659.659 0 00-.285.238l-.005.006c-.138.189-.258.467-.348.832-.17.692-.216 1.631-.124 2.782.43-.128.899-.208 1.404-.237l.01-.001.019-.034c.046-.082.095-.161.148-.239.123-.771.022-1.692-.253-2.444-.134-.364-.297-.65-.453-.813a.628.628 0 00-.107-.09L7.44 2.3zm9.174.04l-.002.001a.628.628 0 00-.107.09c-.156.163-.32.45-.453.814-.29.794-.387 1.776-.23 2.572l.058.097.008.014h.03a5.184 5.184 0 011.466.212c.086-1.124.038-2.043-.128-2.722-.09-.365-.21-.643-.349-.832l-.004-.006a.659.659 0 00-.285-.239h-.004z"></path></svg>
<text x="1712.0" y="413.2" font-family="Inter, 'Segoe UI', Arial, sans-serif" font-size="14.5" font-weight="600" fill="#334155" text-anchor="start">Ollama</text>
<rect x="1572.0" y="432.2" width="117.3" height="32.0" rx="16" fill="#F8FAFC" stroke="#E2E8F0" stroke-width="1.2"/>
<svg x="1582.0" y="438.7" width="19" height="19" viewBox="0 0 24 24" fill="#4F46E5" fill-rule="evenodd"><path d="M2.84 2a1.273 1.273 0 100 2.547h14.107a1.273 1.273 0 100-2.547H2.84zM7.935 5.33a1.273 1.273 0 000 2.548H22.04a1.274 1.274 0 000-2.547H7.935zM3.624 9.935c0-.704.57-1.274 1.274-1.274h14.106a1.274 1.274 0 010 2.547H4.898c-.703 0-1.274-.57-1.274-1.273zM1.273 12.188a1.273 1.273 0 100 2.547H15.38a1.274 1.274 0 000-2.547H1.273zM3.624 16.792c0-.704.57-1.274 1.274-1.274h14.106a1.273 1.273 0 110 2.547H4.898c-.703 0-1.274-.57-1.274-1.273zM13.029 18.849a1.273 1.273 0 100 2.547h9.698a1.273 1.273 0 100-2.547h-9.698z" fill-opacity=".3"></path><path d="M2.84 2a1.273 1.273 0 100 2.547h10.287a1.274 1.274 0 000-2.547H2.84zM7.935 5.33a1.273 1.273 0 000 2.548H18.22a1.274 1.274 0 000-2.547H7.935zM3.624 9.935c0-.704.57-1.274 1.274-1.274h10.286a1.273 1.273 0 010 2.547H4.898c-.703 0-1.274-.57-1.274-1.273zM1.273 12.188a1.273 1.273 0 100 2.547H11.56a1.274 1.274 0 000-2.547H1.273zM3.624 16.792c0-.704.57-1.274 1.274-1.274h10.286a1.273 1.273 0 110 2.547H4.898c-.703 0-1.274-.57-1.274-1.273zM13.029 18.849a1.273 1.273 0 100 2.547h5.78a1.273 1.273 0 100-2.547h-5.78z"></path></svg>
<text x="1608.0" y="453.2" font-family="Inter, 'Segoe UI', Arial, sans-serif" font-size="14.5" font-weight="600" fill="#334155" text-anchor="start">LM Studio</text>
<rect x="1548.0" y="577.4" width="348.0" height="166.2" rx="18" fill="#FFFFFF" stroke="#94A3B8" stroke-width="1.8" stroke-dasharray="8 6"/>
<circle cx="1596" cy="625.4" r="27" fill="#F1F5F9"/>
<svg x="1579.0" y="608.4" width="34" height="34" viewBox="0 0 24 24"><path d="M11.925 14.781l1.823 1.465s1.395-1.036 2.421-1.188c1.076-.16 2.224.44 3.288 1.155 1.607 1.08 2.959 2.451 2.959 2.451L24 17.11s-4.367-4.732-7.83-4.304c-2.272.281-4.245 1.975-4.245 1.975z" fill="#FF5D5F"></path><path d="M1.494 5.757L0 7.401s4.164 3.886 7.442 3.886c1.494 0 3.567-1.171 5.35-2.692 1.016-.867 2.152-1.851 3.288-1.851.763 0 1.77.404 2.72 1.466 0 0 .612-.368.986-.632.328-.232.816-.627.816-.627-1.366-1.458-3.342-2.524-4.522-2.419-1.913 0-3.288 1.191-4.992 2.568-1.703 1.377-2.42 1.945-3.646 1.945-2.062 0-5.948-3.288-5.948-3.288zM1.494 18.278L0 16.635s4.164-3.886 7.442-3.886c1.494 0 3.567 1.17 5.35 2.692 1.016.866 2.152 1.851 3.288 1.851.767 0 1.766-.421 2.72-1.494 0 0 .573.353.926.597.363.252.897.667.897.667-1.367 1.47-3.357 2.547-4.543 2.442-1.913 0-3.049-1.014-4.752-2.391-1.704-1.377-2.66-2.122-3.886-2.122-2.062 0-5.948 3.287-5.948 3.287zM20.981 9.461c-.389.269-1.016.658-1.016.658s.359.777.359 1.823c0 1.046-.329 1.943-.329 1.943s.563.351.927.597c.377.256.956.688.956.688s.687-1.435.687-3.228c0-1.793-.687-3.138-.687-3.138s-.54.41-.897.657z" fill="#4E9CFF"></path><path d="M12.015 9.222l1.733-1.434s1.395 1.003 2.421 1.155c1.076.16 2.224-.44 3.288-1.155 1.607-1.08 2.959-2.451 2.959-2.451L24 6.89s-4.367 4.732-7.83 4.304c-2.272-.28-4.155-1.973-4.155-1.973zM7.83 4.5c2.242 0 4.125 1.913 4.125 1.913s-.524.413-.867.687c-.357.286-.926.747-.926.747S9.176 6.801 7.83 6.801c-.552 0-1.268.332-2.033.987-.59.505-1.203 1.133-1.613 1.912-.356.674-.55 1.468-.568 2.302-.024 1.047.347 2.145.956 3.018.408.586.895 1.027 1.405 1.405.661.491 1.351.837 1.853.837.536 0 1.017-.186 1.375-.358.568-.33 1.016-.718 1.016-.718l1.763 1.465s-.717.717-1.703 1.255c-.638.314-1.456.628-2.451.628-.994 0-2.148-.528-3.228-1.345-.698-.528-1.382-1.154-1.913-1.913-.87-1.244-1.318-2.758-1.315-4.274A7.568 7.568 0 012.75 7.698C4.125 5.905 6.158 4.5 7.83 4.5z" fill="#FF5D5F"></path></svg>
<text x="1638.0" y="617.4" font-family="Inter, 'Segoe UI', Arial, sans-serif" font-size="14" font-weight="700" fill="#64748B" text-anchor="start" letter-spacing="1.4">SISTEMA EXTERNO</text>
<text x="1638.0" y="647.4" font-family="Inter, 'Segoe UI', Arial, sans-serif" font-size="25" font-weight="700" fill="#0F172A" text-anchor="start">Langfuse (opcional)</text>
<text x="1572.0" y="685.4" font-family="Inter, 'Segoe UI', Arial, sans-serif" font-size="17.5" font-weight="400" fill="#475569" text-anchor="start">Guarda las instrucciones de los</text>
<text x="1572.0" y="708.5" font-family="Inter, 'Segoe UI', Arial, sans-serif" font-size="17.5" font-weight="400" fill="#475569" text-anchor="start">agentes y registra cada corrida.</text>
<path d="M304,286 L362,286" fill="none" stroke="#334155" stroke-width="3" stroke-linecap="round" stroke-linejoin="round" marker-end="url(#ah-334155)"/>
<rect x="296.2" y="249.7" width="46.7" height="28.6" rx="8" fill="#FFFFFF" fill-opacity="0.94"/>
<text x="319.5" y="268.2" font-family="Inter, 'Segoe UI', Arial, sans-serif" font-size="16.5" font-weight="600" fill="#334155" text-anchor="middle">Usa</text>
<path d="M520,421.3 L520,475.3" fill="none" stroke="#334155" stroke-width="3" stroke-linecap="round" stroke-linejoin="round" marker-end="url(#ah-334155)" marker-start="url(#ah-334155)"/>
<rect x="534.0" y="423.7" width="233.9" height="49.2" rx="8" fill="#FFFFFF" fill-opacity="0.94"/>
<text x="651.0" y="442.2" font-family="Inter, 'Segoe UI', Arial, sans-serif" font-size="16.5" font-weight="600" fill="#334155" text-anchor="middle">Pide y guarda · HTTP/JSON</text>
<text x="651.0" y="462.8" font-family="Inter, 'Segoe UI', Arial, sans-serif" font-size="16.5" font-weight="600" fill="#334155" text-anchor="middle">Avance en vivo · SSE</text>
<path d="M864,543.3 L1004,543.3" fill="none" stroke="#334155" stroke-width="3" stroke-linecap="round" stroke-linejoin="round" marker-end="url(#ah-334155)"/>
<rect x="867.2" y="488.7" width="137.6" height="49.2" rx="8" fill="#FFFFFF" fill-opacity="0.94"/>
<text x="936.0" y="507.2" font-family="Inter, 'Segoe UI', Arial, sans-serif" font-size="16.5" font-weight="600" fill="#334155" text-anchor="middle">Inicia la corrida</text>
<text x="936.0" y="527.8" font-family="Inter, 'Segoe UI', Arial, sans-serif" font-size="16.5" font-weight="600" fill="#334155" text-anchor="middle">POST /runs</text>
<path d="M1008,666.6 L868,666.6" fill="none" stroke="#64748B" stroke-width="2.6" stroke-linecap="round" stroke-linejoin="round" stroke-dasharray="8 7" marker-end="url(#ah-64748B)"/>
<rect x="854.5" y="674.0" width="163.0" height="49.2" rx="8" fill="#FFFFFF" fill-opacity="0.94"/>
<text x="936.0" y="692.5" font-family="Inter, 'Segoe UI', Arial, sans-serif" font-size="16.5" font-weight="600" fill="#64748B" text-anchor="middle">Modelo y catálogo</text>
<text x="936.0" y="713.1" font-family="Inter, 'Segoe UI', Arial, sans-serif" font-size="16.5" font-weight="600" fill="#64748B" text-anchor="middle">API interna</text>
<path d="M520,722.6 L520,780.6" fill="none" stroke="#334155" stroke-width="3" stroke-linecap="round" stroke-linejoin="round" marker-end="url(#ah-334155)"/>
<rect x="534.0" y="739.3" width="168.7" height="28.6" rx="8" fill="#FFFFFF" fill-opacity="0.94"/>
<text x="618.4" y="757.8" font-family="Inter, 'Segoe UI', Arial, sans-serif" font-size="16.5" font-weight="600" fill="#334155" text-anchor="middle">Lee y escribe · SQL</text>
<path d="M1211.0,851.5 L1211.0,904.7 L868,904.7" fill="none" stroke="#64748B" stroke-width="2.6" stroke-linecap="round" stroke-linejoin="round" stroke-dasharray="8 7" marker-end="url(#ah-64748B)"/>
<rect x="915.1" y="868.4" width="240.8" height="28.6" rx="8" fill="#FFFFFF" fill-opacity="0.94"/>
<text x="1035.5" y="886.9" font-family="Inter, 'Segoe UI', Arial, sans-serif" font-size="16.5" font-weight="600" fill="#64748B" text-anchor="middle">Puntos de control (opcional)</text>
<path d="M1340,409.3 L1340,380.1 L1540,380.1" fill="none" stroke="#334155" stroke-width="3" stroke-linecap="round" stroke-linejoin="round" marker-end="url(#ah-334155)"/>
<rect x="1365.5" y="343.8" width="169.1" height="28.6" rx="8" fill="#FFFFFF" fill-opacity="0.94"/>
<text x="1450.0" y="362.3" font-family="Inter, 'Segoe UI', Arial, sans-serif" font-size="16.5" font-weight="600" fill="#334155" text-anchor="middle">Consulta el modelo</text>
<path d="M800,479.3 L800,449.3 L930,449.3 L930,306.1 L1540,306.1" fill="none" stroke="#64748B" stroke-width="2.6" stroke-linecap="round" stroke-linejoin="round" stroke-dasharray="8 7" marker-end="url(#ah-64748B)"/>
<rect x="1069.0" y="269.8" width="132.0" height="28.6" rx="8" fill="#FFFFFF" fill-opacity="0.94"/>
<text x="1135.0" y="288.3" font-family="Inter, 'Segoe UI', Arial, sans-serif" font-size="16.5" font-weight="600" fill="#64748B" text-anchor="middle">Prueba la llave</text>
<path d="M1414,660.5 L1540,660.5" fill="none" stroke="#64748B" stroke-width="2.6" stroke-linecap="round" stroke-linejoin="round" stroke-dasharray="8 7" marker-end="url(#ah-64748B)"/>
<rect x="1416.7" y="603.9" width="124.7" height="49.2" rx="8" fill="#FFFFFF" fill-opacity="0.94"/>
<text x="1479.0" y="622.4" font-family="Inter, 'Segoe UI', Arial, sans-serif" font-size="16.5" font-weight="600" fill="#64748B" text-anchor="middle">Instrucciones</text>
<text x="1479.0" y="643.0" font-family="Inter, 'Segoe UI', Arial, sans-serif" font-size="16.5" font-weight="600" fill="#64748B" text-anchor="middle">y trazas</text>
</svg>