<svg xmlns="http://www.w3.org/2000/svg" viewBox="0 0 2205 1238" width="2205" height="1238">
<title>Diagrama conceptual del sistema multiagente para el diseño de circuitos analógicos</title>
<defs><marker id="ah-334155" viewBox="0 0 12 12" refX="10" refY="6" markerWidth="13" markerHeight="13" markerUnits="userSpaceOnUse" orient="auto-start-reverse"><path d="M1,1.5 L11,6 L1,10.5 Z" fill="#334155"/></marker><marker id="ah-D97706" viewBox="0 0 12 12" refX="10" refY="6" markerWidth="13" markerHeight="13" markerUnits="userSpaceOnUse" orient="auto-start-reverse"><path d="M1,1.5 L11,6 L1,10.5 Z" fill="#D97706"/></marker><marker id="ah-16A34A" viewBox="0 0 12 12" refX="10" refY="6" markerWidth="13" markerHeight="13" markerUnits="userSpaceOnUse" orient="auto-start-reverse"><path d="M1,1.5 L11,6 L1,10.5 Z" fill="#16A34A"/></marker><marker id="ah-DC2626" viewBox="0 0 12 12" refX="10" refY="6" markerWidth="13" markerHeight="13" markerUnits="userSpaceOnUse" orient="auto-start-reverse"><path d="M1,1.5 L11,6 L1,10.5 Z" fill="#DC2626"/></marker><marker id="ah-2563EB" viewBox="0 0 12 12" refX="10" refY="6" markerWidth="13" markerHeight="13" markerUnits="userSpaceOnUse" orient="auto-start-reverse"><path d="M1,1.5 L11,6 L1,10.5 Z" fill="#2563EB"/></marker><filter id="shadow" x="-10%" y="-10%" width="120%" height="130%"><feDropShadow dx="0" dy="3" stdDeviation="4" flood-color="#0F172A" flood-opacity="0.08"/></filter></defs>
<rect width="2205" height="1265" fill="#FFFFFF"/>
<text x="40.0" y="58.0" font-family="Inter, 'Segoe UI', Arial, sans-serif" font-size="15" font-weight="700" fill="#6D28D9" text-anchor="start" letter-spacing="1.6">SISTEMA MULTIAGENTE PARA EL DISEÑO DE CIRCUITOS ANALÓGICOS</text>
<text x="40.0" y="104.0" font-family="Inter, 'Segoe UI', Arial, sans-serif" font-size="42" font-weight="800" fill="#0F172A" text-anchor="start">Diagrama conceptual</text>
<text x="40.0" y="142.0" font-family="Inter, 'Segoe UI', Arial, sans-serif" font-size="19" font-weight="400" fill="#475569" text-anchor="start">Del pedido en palabras al circuito verificado: el sistema conversa, reparte el trabajo, prueba, corrige y vuelve a probar hasta que el circuito cumple.</text>
<rect x="1605" y="40" width="570" height="112" rx="14" fill="#F8FAFC" stroke="#E2E8F0" stroke-width="1.5"/>
<g transform="translate(1625.0,60.0) scale(1.0833)" fill="none" stroke="#64748B" stroke-width="2.0" stroke-linecap="round" stroke-linejoin="round"><circle cx="12" cy="12" r="10" /> <path d="M12 16v-4" /> <path d="M12 8h.01" /></g>
<text x="1663.0" y="80.0" font-family="Inter, 'Segoe UI', Arial, sans-serif" font-size="17" font-weight="700" fill="#1E293B" text-anchor="start">Cómo leerlo</text>
<text x="1663.0" y="106.0" font-family="Inter, 'Segoe UI', Arial, sans-serif" font-size="15" font-weight="400" fill="#475569" text-anchor="start">Siga los números ① → ⑥ por el camino principal.</text>
<text x="1663.0" y="126.0" font-family="Inter, 'Segoe UI', Arial, sans-serif" font-size="15" font-weight="400" fill="#475569" text-anchor="start">Las flechas de color son los caminos alternos:</text>
<text x="1663.0" y="146.0" font-family="Inter, 'Segoe UI', Arial, sans-serif" font-size="15" font-weight="400" fill="#475569" text-anchor="start">conversar, pedir datos, corregir o terminar.</text>
<rect x="30" y="300" width="175" height="240" rx="18" fill="#EFF6FF" stroke="#93C5FD" stroke-width="1.6" filter="url(#shadow)"/>
<g transform="translate(85.5,322.0) scale(2.6667)" fill="none" stroke="#2563EB" stroke-width="1.7" stroke-linecap="round" stroke-linejoin="round"><circle cx="12" cy="8" r="5" /> <path d="M20 21a8 8 0 0 0-16 0" /></g>
<text x="117.5" y="420.0" font-family="Inter, 'Segoe UI', Arial, sans-serif" font-size="22" font-weight="700" fill="#0F172A" text-anchor="middle">Usuario</text>
<text x="117.5" y="448.0" font-family="Inter, 'Segoe UI', Arial, sans-serif" font-size="15.5" font-weight="400" fill="#475569" text-anchor="middle">Ingeniero o</text>
<text x="117.5" y="467.0" font-family="Inter, 'Segoe UI', Arial, sans-serif" font-size="15.5" font-weight="400" fill="#475569" text-anchor="middle">estudiante</text>
<text x="117.5" y="498.0" font-family="Inter, 'Segoe UI', Arial, sans-serif" font-size="15" font-weight="600" fill="#2563EB" text-anchor="middle">Pide en sus</text>
<text x="117.5" y="516.0" font-family="Inter, 'Segoe UI', Arial, sans-serif" font-size="15" font-weight="600" fill="#2563EB" text-anchor="middle">propias palabras</text>
<rect x="30" y="572" width="205" height="74" rx="14" fill="#FFFFFF" stroke="#93C5FD" stroke-width="1.5"/>
<path d="M81,573 L90,560 L99,573" fill="#FFFFFF" stroke="#93C5FD" stroke-width="1.5" stroke-linejoin="round"/>
<rect x="82" y="572" width="16" height="3" fill="#FFFFFF"/>
<text x="46.0" y="600.0" font-family="Inter, 'Segoe UI', Arial, sans-serif" font-size="16" font-weight="500" fill="#1E293B" text-anchor="start">“Necesito un filtro</text>
<text x="46.0" y="621.0" font-family="Inter, 'Segoe UI', Arial, sans-serif" font-size="16" font-weight="500" fill="#1E293B" text-anchor="start">pasa-bajas de 1 kHz”</text>
<rect x="30" y="678" width="205" height="50" rx="14" fill="#FFFFFF" stroke="#93C5FD" stroke-width="1.5"/>
<path d="M81,679 L90,666 L99,679" fill="#FFFFFF" stroke="#93C5FD" stroke-width="1.5" stroke-linejoin="round"/>
<rect x="82" y="678" width="16" height="3" fill="#FFFFFF"/>
<text x="46.0" y="706.0" font-family="Inter, 'Segoe UI', Arial, sans-serif" font-size="16" font-weight="500" fill="#1E293B" text-anchor="start">“Ahora a 2 kHz”</text>
<g transform="translate(32.0,748.0) scale(0.9167)" fill="none" stroke="#2563EB" stroke-width="2" stroke-linecap="round" stroke-linejoin="round"><path d="m17 2 4 4-4 4" /> <path d="M3 11v-1a4 4 0 0 1 4-4h14" /> <path d="m7 22-4-4 4-4" /> <path d="M21 13v1a4 4 0 0 1-4 4H3" /></g>
<text x="62.0" y="765.0" font-family="Inter, 'Segoe UI', Arial, sans-serif" font-size="15" font-weight="400" fill="#64748B" text-anchor="start">La conversación sigue:</text>
<text x="62.0" y="784.0" font-family="Inter, 'Segoe UI', Arial, sans-serif" font-size="15" font-weight="400" fill="#64748B" text-anchor="start">el sistema recuerda</text>
<text x="62.0" y="803.0" font-family="Inter, 'Segoe UI', Arial, sans-serif" font-size="15" font-weight="400" fill="#64748B" text-anchor="start">lo que ya se habló.</text>
<rect x="245" y="300" width="195" height="240" rx="18" fill="#F0FDFA" stroke="#5EEAD4" stroke-width="1.6" filter="url(#shadow)"/>
<circle cx="414" cy="326" r="15" fill="#E2E8F0" stroke="#475569" stroke-width="1.5"/>
<g transform="translate(404.7,316.7) scale(0.7750)" fill="none" stroke="#475569" stroke-width="2.2" stroke-linecap="round" stroke-linejoin="round"><ellipse cx="12" cy="5" rx="9" ry="3" /> <path d="M3 5V19A9 3 0 0 0 21 19V5" /> <path d="M3 12A9 3 0 0 0 21 12" /></g>
<g transform="translate(314.5,322.0) scale(2.3333)" fill="none" stroke="#0D9488" stroke-width="1.8" stroke-linecap="round" stroke-linejoin="round"><rect x="2" y="4" width="20" height="16" rx="2" /> <path d="M10 4v4" /> <path d="M2 8h20" /> <path d="M6 4v4" /></g>
<text x="342.5" y="410.0" font-family="Inter, 'Segoe UI', Arial, sans-serif" font-size="20" font-weight="700" fill="#0F172A" text-anchor="middle">Aplicación web</text>
<text x="342.5" y="438.0" font-family="Inter, 'Segoe UI', Arial, sans-serif" font-size="15.5" font-weight="400" fill="#475569" text-anchor="middle">Conversación,</text>
<text x="342.5" y="457.0" font-family="Inter, 'Segoe UI', Arial, sans-serif" font-size="15.5" font-weight="400" fill="#475569" text-anchor="middle">proyectos, archivos</text>
<text x="342.5" y="476.0" font-family="Inter, 'Segoe UI', Arial, sans-serif" font-size="15.5" font-weight="400" fill="#475569" text-anchor="middle">y avance en vivo</text>
<text x="342.5" y="506.0" font-family="Inter, 'Segoe UI', Arial, sans-serif" font-size="14.5" font-weight="600" fill="#0D9488" text-anchor="middle">Elige el modelo de IA</text>
<text x="342.5" y="523.0" font-family="Inter, 'Segoe UI', Arial, sans-serif" font-size="14.5" font-weight="600" fill="#0D9488" text-anchor="middle">de cada agente</text>
<path d="M210,395 L238,395" fill="none" stroke="#2563EB" stroke-width="2.5" stroke-linecap="round" stroke-linejoin="round" marker-end="url(#ah-2563EB)"/>
<path d="M240,450 L212,450" fill="none" stroke="#2563EB" stroke-width="2.5" stroke-linecap="round" stroke-linejoin="round" stroke-dasharray="7 6" marker-end="url(#ah-2563EB)"/>
<rect x="470" y="205" width="1435" height="700" rx="26" fill="#FAF8FF" stroke="#C4B5FD" stroke-width="1.8"/>
<g transform="translate(494.0,225.0) scale(1.2500)" fill="none" stroke="#6D28D9" stroke-width="2" stroke-linecap="round" stroke-linejoin="round"><path d="M12 8V4H8" /> <rect width="16" height="12" x="4" y="8" rx="2" /> <path d="M2 14h2" /> <path d="M20 14h2" /> <path d="M15 13v2" /> <path d="M9 13v2" /></g>
<text x="534.0" y="247.0" font-family="Inter, 'Segoe UI', Arial, sans-serif" font-size="16" font-weight="800" fill="#6D28D9" text-anchor="start" letter-spacing="1.6">EQUIPO DE AGENTES DE IA</text>
<text x="534.0" y="271.0" font-family="Inter, 'Segoe UI', Arial, sans-serif" font-size="15" font-weight="400" fill="#64748B" text-anchor="start">Cada agente tiene una sola tarea y se coordinan entre sí</text>
<rect x="505" y="330" width="205" height="190" rx="18" fill="#FFFFFF" stroke="#CBD5E1" stroke-width="1.6" filter="url(#shadow)"/>
<circle cx="531" cy="356" r="16" fill="#6D28D9"/>
<text x="531.0" y="362.0" font-family="Inter, 'Segoe UI', Arial, sans-serif" font-size="17" font-weight="700" fill="#fff" text-anchor="middle">1</text>
<circle cx="684" cy="356" r="15" fill="#CFFAFE" stroke="#0891B2" stroke-width="1.5"/>
<g transform="translate(674.7,346.7) scale(0.7750)" fill="none" stroke="#0891B2" stroke-width="2.2" stroke-linecap="round" stroke-linejoin="round"><path d="m16 6 4 14" /> <path d="M12 6v14" /> <path d="M8 8v12" /> <path d="M4 4v16" /></g>
<circle cx="648" cy="356" r="15" fill="#EDE9FE" stroke="#7C3AED" stroke-width="1.5"/>
<g transform="translate(638.7,346.7) scale(0.7750)" fill="none" stroke="#7C3AED" stroke-width="2.2" stroke-linecap="round" stroke-linejoin="round"><path d="M9.937 15.5A2 2 0 0 0 8.5 14.063l-6.135-1.582a.5.5 0 0 1 0-.962L8.5 9.936A2 2 0 0 0 9.937 8.5l1.582-6.135a.5.5 0 0 1 .963 0L14.063 8.5A2 2 0 0 0 15.5 9.937l6.135 1.581a.5.5 0 0 1 0 .964L15.5 14.063a2 2 0 0 0-1.437 1.437l-1.582 6.135a.5.5 0 0 1-.963 0z" /> <path d="M20 3v4" /> <path d="M22 5h-4" /> <path d="M4 17v2" /> <path d="M5 18H3" /></g>
<g transform="translate(585.5,360.0) scale(1.8333)" fill="none" stroke="#6D28D9" stroke-width="1.9" stroke-linecap="round" stroke-linejoin="round"><path d="M12 5a3 3 0 1 0-5.997.125 4 4 0 0 0-2.526 5.77 4 4 0 0 0 .556 6.588A4 4 0 1 0 12 18Z" /> <path d="M9 13a4.5 4.5 0 0 0 3-4" /> <path d="M6.003 5.125A3 3 0 0 0 6.401 6.5" /> <path d="M3.477 10.896a4 4 0 0 1 .585-.396" /> <path d="M6 18a4 4 0 0 1-1.967-.516" /> <path d="M12 13h4" /> <path d="M12 18h6a2 2 0 0 1 2 2v1" /> <path d="M12 8h8" /> <path d="M16 8V5a2 2 0 0 1 2-2" /> <circle cx="16" cy="13" r=".5" /> <circle cx="18" cy="3" r=".5" /> <circle cx="20" cy="21" r=".5" /> <circle cx="20" cy="8" r=".5" /></g>
<text x="607.5" y="430.0" font-family="Inter, 'Segoe UI', Arial, sans-serif" font-size="12.5" font-weight="700" fill="#64748B" text-anchor="middle" letter-spacing="1.4">ORQUESTADOR</text>
<text x="607.5" y="456.0" font-family="Inter, 'Segoe UI', Arial, sans-serif" font-size="20" font-weight="700" fill="#0F172A" text-anchor="middle">Entiende el pedido</text>
<text x="607.5" y="482.0" font-family="Inter, 'Segoe UI', Arial, sans-serif" font-size="16" font-weight="400" fill="#475569" text-anchor="middle">Lee el mensaje y decide</text>
<text x="607.5" y="502.0" font-family="Inter, 'Segoe UI', Arial, sans-serif" font-size="16" font-weight="400" fill="#475569" text-anchor="middle">qué tipo de pedido es</text>
<path d="M445,420 L498,420" fill="none" stroke="#334155" stroke-width="2.8" stroke-linecap="round" stroke-linejoin="round" marker-end="url(#ah-334155)"/>
<path d="M607.5,524 L607.5,944" fill="none" stroke="#2563EB" stroke-width="2.5" stroke-linecap="round" stroke-linejoin="round" stroke-dasharray="7 6" marker-end="url(#ah-2563EB)"/>
<rect x="490" y="570" width="235" height="68" rx="12" fill="#EFF6FF" stroke="#93C5FD" stroke-width="1.5"/>
<g transform="translate(504.0,591.0) scale(1.0833)" fill="none" stroke="#2563EB" stroke-width="2.0" stroke-linecap="round" stroke-linejoin="round"><path d="M7.9 20A9 9 0 1 0 4 16.1L2 22Z" /></g>
<text x="542.0" y="600.0" font-family="Inter, 'Segoe UI', Arial, sans-serif" font-size="16" font-weight="700" fill="#2563EB" text-anchor="start">¿Solo es una duda?</text>
<text x="542.0" y="621.0" font-family="Inter, 'Segoe UI', Arial, sans-serif" font-size="15" font-weight="400" fill="#475569" text-anchor="start">La responde directo</text>
<rect x="490" y="670" width="235" height="68" rx="12" fill="#EFF6FF" stroke="#93C5FD" stroke-width="1.5"/>
<g transform="translate(504.0,691.0) scale(1.0833)" fill="none" stroke="#2563EB" stroke-width="2.0" stroke-linecap="round" stroke-linejoin="round"><path d="M7.9 20A9 9 0 1 0 4 16.1L2 22Z" /> <path d="M9.09 9a3 3 0 0 1 5.83 1c0 2-3 3-3 3" /> <path d="M12 17h.01" /></g>
<text x="542.0" y="700.0" font-family="Inter, 'Segoe UI', Arial, sans-serif" font-size="16" font-weight="700" fill="#2563EB" text-anchor="start">¿Faltan datos?</text>
<text x="542.0" y="721.0" font-family="Inter, 'Segoe UI', Arial, sans-serif" font-size="15" font-weight="400" fill="#475569" text-anchor="start">Le pregunta al usuario</text>
<rect x="845" y="330" width="205" height="262" rx="18" fill="#FFFFFF" stroke="#CBD5E1" stroke-width="1.6" filter="url(#shadow)"/>
<circle cx="871" cy="356" r="16" fill="#6D28D9"/>
<text x="871.0" y="362.0" font-family="Inter, 'Segoe UI', Arial, sans-serif" font-size="17" font-weight="700" fill="#fff" text-anchor="middle">2</text>
<circle cx="1024" cy="356" r="15" fill="#CFFAFE" stroke="#0891B2" stroke-width="1.5"/>
<g transform="translate(1014.7,346.7) scale(0.7750)" fill="none" stroke="#0891B2" stroke-width="2.2" stroke-linecap="round" stroke-linejoin="round"><path d="m16 6 4 14" /> <path d="M12 6v14" /> <path d="M8 8v12" /> <path d="M4 4v16" /></g>
<g transform="translate(925.5,360.0) scale(1.8333)" fill="none" stroke="#6D28D9" stroke-width="1.9" stroke-linecap="round" stroke-linejoin="round"><rect width="16" height="20" x="4" y="2" rx="2" /> <line x1="8" x2="16" y1="6" y2="6" /> <line x1="16" x2="16" y1="14" y2="18" /> <path d="M16 10h.01" /> <path d="M12 10h.01" /> <path d="M8 10h.01" /> <path d="M12 14h.01" /> <path d="M8 14h.01" /> <path d="M12 18h.01" /> <path d="M8 18h.01" /></g>
<text x="947.5" y="430.0" font-family="Inter, 'Segoe UI', Arial, sans-serif" font-size="12.5" font-weight="700" fill="#64748B" text-anchor="middle" letter-spacing="1.4">CÁLCULO</text>
<text x="947.5" y="456.0" font-family="Inter, 'Segoe UI', Arial, sans-serif" font-size="20" font-weight="700" fill="#0F172A" text-anchor="middle">Calcula los valores</text>
<text x="947.5" y="482.0" font-family="Inter, 'Segoe UI', Arial, sans-serif" font-size="16" font-weight="400" fill="#475569" text-anchor="middle">Aplica fórmulas de</text>
<text x="947.5" y="502.0" font-family="Inter, 'Segoe UI', Arial, sans-serif" font-size="16" font-weight="400" fill="#475569" text-anchor="middle">diseño a cada bloque</text>
<rect x="871.5" y="518" width="44" height="30" rx="8" fill="#EDE9FE" stroke="#C4B5FD" stroke-width="1.3"/>
<text x="893.5" y="538.0" font-family="Inter, 'Segoe UI', Arial, sans-serif" font-size="14" font-weight="700" fill="#6D28D9" text-anchor="middle">B1</text>
<rect x="923.5" y="518" width="44" height="30" rx="8" fill="#EDE9FE" stroke="#C4B5FD" stroke-width="1.3"/>
<text x="945.5" y="538.0" font-family="Inter, 'Segoe UI', Arial, sans-serif" font-size="14" font-weight="700" fill="#6D28D9" text-anchor="middle">B2</text>
<rect x="975.5" y="518" width="44" height="30" rx="8" fill="#EDE9FE" stroke="#C4B5FD" stroke-width="1.3"/>
<text x="997.5" y="538.0" font-family="Inter, 'Segoe UI', Arial, sans-serif" font-size="14" font-weight="700" fill="#6D28D9" text-anchor="middle">B3</text>
<text x="947.5" y="572.0" font-family="Inter, 'Segoe UI', Arial, sans-serif" font-size="14" font-weight="600" fill="#6D28D9" text-anchor="middle">todos los bloques a la vez</text>
<path d="M715,420 L838,420" fill="none" stroke="#334155" stroke-width="2.8" stroke-linecap="round" stroke-linejoin="round" marker-end="url(#ah-334155)"/>
<text x="777.5" y="406.0" font-family="Inter, 'Segoe UI', Arial, sans-serif" font-size="15.5" font-weight="700" fill="#0F172A" text-anchor="middle">Es un diseño</text>
<text x="777.5" y="447.0" font-family="Inter, 'Segoe UI', Arial, sans-serif" font-size="14" font-weight="400" fill="#475569" text-anchor="middle">lo divide en</text>
<text x="777.5" y="465.0" font-family="Inter, 'Segoe UI', Arial, sans-serif" font-size="14" font-weight="400" fill="#475569" text-anchor="middle">bloques con metas</text>
<rect x="845" y="624" width="205" height="140" rx="14" fill="#FFFFFF" stroke="#C4B5FD" stroke-width="1.4" stroke-dasharray="6 5"/>
<g transform="translate(859.0,640.0) scale(1.0000)" fill="none" stroke="#6D28D9" stroke-width="2" stroke-linecap="round" stroke-linejoin="round"><path d="M15 14c.2-1 .7-1.7 1.5-2.5 1-.9 1.5-2.2 1.5-3.5A6 6 0 0 0 6 8c0 1 .2 2.2 1.5 3.5.7.7 1.3 1.5 1.5 2.5" /> <path d="M9 18h6" /> <path d="M10 22h4" /></g>
<text x="891.0" y="658.0" font-family="Inter, 'Segoe UI', Arial, sans-serif" font-size="15.5" font-weight="700" fill="#1E293B" text-anchor="start">¿No está en el</text>
<text x="891.0" y="678.0" font-family="Inter, 'Segoe UI', Arial, sans-serif" font-size="15.5" font-weight="700" fill="#1E293B" text-anchor="start">catálogo?</text>
<text x="861.0" y="706.0" font-family="Inter, 'Segoe UI', Arial, sans-serif" font-size="14.5" font-weight="400" fill="#475569" text-anchor="start">La IA propone el circuito</text>
<text x="861.0" y="725.0" font-family="Inter, 'Segoe UI', Arial, sans-serif" font-size="14.5" font-weight="400" fill="#475569" text-anchor="start">completo y se prueba</text>
<text x="861.0" y="744.0" font-family="Inter, 'Segoe UI', Arial, sans-serif" font-size="14.5" font-weight="400" fill="#475569" text-anchor="start">igual que los demás.</text>
<rect x="1090" y="268" width="520" height="547" rx="22" fill="#FFFBEB" stroke="#FCD34D" stroke-width="1.8"/>
<g transform="translate(1110.0,284.0) scale(1.1667)" fill="none" stroke="#D97706" stroke-width="2.2" stroke-linecap="round" stroke-linejoin="round"><path d="M3 12a9 9 0 0 1 9-9 9.75 9.75 0 0 1 6.74 2.74L21 8" /> <path d="M21 3v5h-5" /> <path d="M21 12a9 9 0 0 1-9 9 9.75 9.75 0 0 1-6.74-2.74L3 16" /> <path d="M8 16H3v5" /></g>
<text x="1148.0" y="306.0" font-family="Inter, 'Segoe UI', Arial, sans-serif" font-size="16" font-weight="800" fill="#D97706" text-anchor="start" letter-spacing="1.4">CICLO DE PRUEBA Y AJUSTE</text>
<text x="1590.0" y="306.0" font-family="Inter, 'Segoe UI', Arial, sans-serif" font-size="15" font-weight="600" fill="#D97706" text-anchor="end">hasta 5 intentos</text>
<rect x="1110" y="330" width="205" height="190" rx="18" fill="#FFFFFF" stroke="#CBD5E1" stroke-width="1.6" filter="url(#shadow)"/>
<circle cx="1136" cy="356" r="16" fill="#6D28D9"/>
<text x="1136.0" y="362.0" font-family="Inter, 'Segoe UI', Arial, sans-serif" font-size="17" font-weight="700" fill="#fff" text-anchor="middle">3</text>
<circle cx="1289" cy="356" r="15" fill="#CFFAFE" stroke="#0891B2" stroke-width="1.5"/>
<g transform="translate(1279.7,346.7) scale(0.7750)" fill="none" stroke="#0891B2" stroke-width="2.2" stroke-linecap="round" stroke-linejoin="round"><path d="m16 6 4 14" /> <path d="M12 6v14" /> <path d="M8 8v12" /> <path d="M4 4v16" /></g>
<g transform="translate(1190.5,360.0) scale(1.8333)" fill="none" stroke="#6D28D9" stroke-width="1.9" stroke-linecap="round" stroke-linejoin="round"><path d="M10 12.5 8 15l2 2.5" /> <path d="m14 12.5 2 2.5-2 2.5" /> <path d="M14 2v4a2 2 0 0 0 2 2h4" /> <path d="M15 2H6a2 2 0 0 0-2 2v16a2 2 0 0 0 2 2h12a2 2 0 0 0 2-2V7z" /></g>
<text x="1212.5" y="430.0" font-family="Inter, 'Segoe UI', Arial, sans-serif" font-size="12.5" font-weight="700" fill="#64748B" text-anchor="middle" letter-spacing="1.4">ESCRITURA</text>
<text x="1212.5" y="456.0" font-family="Inter, 'Segoe UI', Arial, sans-serif" font-size="20" font-weight="700" fill="#0F172A" text-anchor="middle">Escribe el circuito</text>
<text x="1212.5" y="482.0" font-family="Inter, 'Segoe UI', Arial, sans-serif" font-size="16" font-weight="400" fill="#475569" text-anchor="middle">Lo pasa a código SPICE,</text>
<text x="1212.5" y="502.0" font-family="Inter, 'Segoe UI', Arial, sans-serif" font-size="16" font-weight="400" fill="#475569" text-anchor="middle">listo para simular</text>
<rect x="1385" y="330" width="205" height="190" rx="18" fill="#FFFFFF" stroke="#CBD5E1" stroke-width="1.6" filter="url(#shadow)"/>
<circle cx="1411" cy="356" r="16" fill="#6D28D9"/>
<text x="1411.0" y="362.0" font-family="Inter, 'Segoe UI', Arial, sans-serif" font-size="17" font-weight="700" fill="#fff" text-anchor="middle">4</text>
<circle cx="1564" cy="356" r="15" fill="#FFEDD5" stroke="#EA580C" stroke-width="1.5"/>
<g transform="translate(1554.7,346.7) scale(0.7750)" fill="none" stroke="#EA580C" stroke-width="2.2" stroke-linecap="round" stroke-linejoin="round"><path d="M22 12h-2.48a2 2 0 0 0-1.93 1.46l-2.35 8.36a.25.25 0 0 1-.48 0L9.24 2.18a.25.25 0 0 0-.48 0l-2.35 8.36A2 2 0 0 1 4.49 12H2" /></g>
<g transform="translate(1465.5,360.0) scale(1.8333)" fill="none" stroke="#6D28D9" stroke-width="1.9" stroke-linecap="round" stroke-linejoin="round"><path d="M10 2v7.527a2 2 0 0 1-.211.896L4.72 20.55a1 1 0 0 0 .9 1.45h12.76a1 1 0 0 0 .9-1.45l-5.069-10.127A2 2 0 0 1 14 9.527V2" /> <path d="M8.5 2h7" /> <path d="M7 16h10" /></g>
<text x="1487.5" y="430.0" font-family="Inter, 'Segoe UI', Arial, sans-serif" font-size="12.5" font-weight="700" fill="#64748B" text-anchor="middle" letter-spacing="1.4">SIMULACIÓN</text>
<text x="1487.5" y="456.0" font-family="Inter, 'Segoe UI', Arial, sans-serif" font-size="20" font-weight="700" fill="#0F172A" text-anchor="middle">Prueba el circuito</text>
<text x="1487.5" y="482.0" font-family="Inter, 'Segoe UI', Arial, sans-serif" font-size="16" font-weight="400" fill="#475569" text-anchor="middle">Lo simula en ngspice</text>
<text x="1487.5" y="502.0" font-family="Inter, 'Segoe UI', Arial, sans-serif" font-size="16" font-weight="400" fill="#475569" text-anchor="middle">y mide el resultado</text>
<rect x="1385" y="600" width="205" height="190" rx="18" fill="#FFFFFF" stroke="#CBD5E1" stroke-width="1.6" filter="url(#shadow)"/>
<circle cx="1411" cy="626" r="16" fill="#6D28D9"/>
<text x="1411.0" y="632.0" font-family="Inter, 'Segoe UI', Arial, sans-serif" font-size="17" font-weight="700" fill="#fff" text-anchor="middle">5</text>
<g transform="translate(1465.5,630.0) scale(1.8333)" fill="none" stroke="#6D28D9" stroke-width="1.9" stroke-linecap="round" stroke-linejoin="round"><path d="m16 16 3-8 3 8c-.87.65-1.92 1-3 1s-2.13-.35-3-1Z" /> <path d="m2 16 3-8 3 8c-.87.65-1.92 1-3 1s-2.13-.35-3-1Z" /> <path d="M7 21h10" /> <path d="M12 3v18" /> <path d="M3 7h2c2 0 5-1 7-2 2 1 5 2 7 2h2" /></g>
<text x="1487.5" y="700.0" font-family="Inter, 'Segoe UI', Arial, sans-serif" font-size="12.5" font-weight="700" fill="#64748B" text-anchor="middle" letter-spacing="1.4">CURADOR</text>
<text x="1487.5" y="726.0" font-family="Inter, 'Segoe UI', Arial, sans-serif" font-size="20" font-weight="700" fill="#0F172A" text-anchor="middle">Revisa y decide</text>
<text x="1487.5" y="752.0" font-family="Inter, 'Segoe UI', Arial, sans-serif" font-size="16" font-weight="400" fill="#475569" text-anchor="middle">Compara lo medido</text>
<text x="1487.5" y="772.0" font-family="Inter, 'Segoe UI', Arial, sans-serif" font-size="16" font-weight="400" fill="#475569" text-anchor="middle">contra la meta</text>
<rect x="1110" y="600" width="205" height="190" rx="18" fill="#FEF3C7" stroke="#F59E0B" stroke-width="1.6" filter="url(#shadow)"/>
<circle cx="1289" cy="626" r="15" fill="#EDE9FE" stroke="#7C3AED" stroke-width="1.5"/>
<g transform="translate(1279.7,616.7) scale(0.7750)" fill="none" stroke="#7C3AED" stroke-width="2.2" stroke-linecap="round" stroke-linejoin="round"><path d="M9.937 15.5A2 2 0 0 0 8.5 14.063l-6.135-1.582a.5.5 0 0 1 0-.962L8.5 9.936A2 2 0 0 0 9.937 8.5l1.582-6.135a.5.5 0 0 1 .963 0L14.063 8.5A2 2 0 0 0 15.5 9.937l6.135 1.581a.5.5 0 0 1 0 .964L15.5 14.063a2 2 0 0 0-1.437 1.437l-1.582 6.135a.5.5 0 0 1-.963 0z" /> <path d="M20 3v4" /> <path d="M22 5h-4" /> <path d="M4 17v2" /> <path d="M5 18H3" /></g>
<g transform="translate(1190.5,630.0) scale(1.8333)" fill="none" stroke="#D97706" stroke-width="1.9" stroke-linecap="round" stroke-linejoin="round"><path d="M14.7 6.3a1 1 0 0 0 0 1.4l1.6 1.6a1 1 0 0 0 1.4 0l3.77-3.77a6 6 0 0 1-7.94 7.94l-6.91 6.91a2.12 2.12 0 0 1-3-3l6.91-6.91a6 6 0 0 1 7.94-7.94l-3.76 3.76z" /></g>
<text x="1212.5" y="700.0" font-family="Inter, 'Segoe UI', Arial, sans-serif" font-size="12.5" font-weight="700" fill="#D97706" text-anchor="middle" letter-spacing="1.4">AJUSTE DEL CURADOR</text>
<text x="1212.5" y="726.0" font-family="Inter, 'Segoe UI', Arial, sans-serif" font-size="20" font-weight="700" fill="#0F172A" text-anchor="middle">Corrige</text>
<text x="1212.5" y="752.0" font-family="Inter, 'Segoe UI', Arial, sans-serif" font-size="16" font-weight="400" fill="#475569" text-anchor="middle">Cambia valores o</text>
<text x="1212.5" y="772.0" font-family="Inter, 'Segoe UI', Arial, sans-serif" font-size="16" font-weight="400" fill="#475569" text-anchor="middle">repara el circuito</text>
<path d="M1055,420 L1103,420" fill="none" stroke="#334155" stroke-width="2.8" stroke-linecap="round" stroke-linejoin="round" marker-end="url(#ah-334155)"/>
<path d="M1320,420 L1378,420" fill="none" stroke="#334155" stroke-width="2.8" stroke-linecap="round" stroke-linejoin="round" marker-end="url(#ah-334155)"/>
<path d="M1487.5,525 L1487.5,593" fill="none" stroke="#334155" stroke-width="2.8" stroke-linecap="round" stroke-linejoin="round" marker-end="url(#ah-334155)"/>
<text x="1499.5" y="565.0" font-family="Inter, 'Segoe UI', Arial, sans-serif" font-size="14.5" font-weight="600" fill="#475569" text-anchor="start">mediciones</text>
<path d="M1380,695.0 L1322,695.0" fill="none" stroke="#D97706" stroke-width="3.2" stroke-linecap="round" stroke-linejoin="round" marker-end="url(#ah-D97706)"/>
<text x="1350.0" y="683.0" font-family="Inter, 'Segoe UI', Arial, sans-serif" font-size="15" font-weight="700" fill="#D97706" text-anchor="middle">Aún no</text>
<path d="M1212.5,595 L1212.5,527" fill="none" stroke="#D97706" stroke-width="3.2" stroke-linecap="round" stroke-linejoin="round" marker-end="url(#ah-D97706)"/>
<text x="1200.5" y="565.0" font-family="Inter, 'Segoe UI', Arial, sans-serif" font-size="14.5" font-weight="700" fill="#D97706" text-anchor="end">otra vez</text>
<circle cx="1350.0" cy="560.0" r="27" fill="#FFFFFF" stroke="#FCD34D" stroke-width="1.6"/>
<g transform="translate(1335.0,545.0) scale(1.2500)" fill="none" stroke="#D97706" stroke-width="2.4" stroke-linecap="round" stroke-linejoin="round"><path d="M3 12a9 9 0 0 1 9-9 9.75 9.75 0 0 1 6.74 2.74L21 8" /> <path d="M21 3v5h-5" /> <path d="M21 12a9 9 0 0 1-9 9 9.75 9.75 0 0 1-6.74-2.74L3 16" /> <path d="M8 16H3v5" /></g>
<rect x="1675" y="600" width="205" height="190" rx="18" fill="#F0FDF4" stroke="#86EFAC" stroke-width="1.6" filter="url(#shadow)"/>
<circle cx="1701" cy="626" r="16" fill="#16A34A"/>
<text x="1701.0" y="632.0" font-family="Inter, 'Segoe UI', Arial, sans-serif" font-size="17" font-weight="700" fill="#fff" text-anchor="middle">6</text>
<circle cx="1854" cy="626" r="15" fill="#EDE9FE" stroke="#7C3AED" stroke-width="1.5"/>
<g transform="translate(1844.7,616.7) scale(0.7750)" fill="none" stroke="#7C3AED" stroke-width="2.2" stroke-linecap="round" stroke-linejoin="round"><path d="M9.937 15.5A2 2 0 0 0 8.5 14.063l-6.135-1.582a.5.5 0 0 1 0-.962L8.5 9.936A2 2 0 0 0 9.937 8.5l1.582-6.135a.5.5 0 0 1 .963 0L14.063 8.5A2 2 0 0 0 15.5 9.937l6.135 1.581a.5.5 0 0 1 0 .964L15.5 14.063a2 2 0 0 0-1.437 1.437l-1.582 6.135a.5.5 0 0 1-.963 0z" /> <path d="M20 3v4" /> <path d="M22 5h-4" /> <path d="M4 17v2" /> <path d="M5 18H3" /></g>
<g transform="translate(1755.5,630.0) scale(1.8333)" fill="none" stroke="#16A34A" stroke-width="1.9" stroke-linecap="round" stroke-linejoin="round"><path d="M12 7v14" /> <path d="M3 18a1 1 0 0 1-1-1V4a1 1 0 0 1 1-1h5a4 4 0 0 1 4 4 4 4 0 0 1 4-4h5a1 1 0 0 1 1 1v13a1 1 0 0 1-1 1h-6a3 3 0 0 0-3 3 3 3 0 0 0-3-3z" /></g>
<text x="1777.5" y="700.0" font-family="Inter, 'Segoe UI', Arial, sans-serif" font-size="12.5" font-weight="700" fill="#64748B" text-anchor="middle" letter-spacing="1.4">DOCUMENTADOR</text>
<text x="1777.5" y="726.0" font-family="Inter, 'Segoe UI', Arial, sans-serif" font-size="20" font-weight="700" fill="#0F172A" text-anchor="middle">Explica el resultado</text>
<text x="1777.5" y="752.0" font-family="Inter, 'Segoe UI', Arial, sans-serif" font-size="16" font-weight="400" fill="#475569" text-anchor="middle">Lo describe en</text>
<text x="1777.5" y="772.0" font-family="Inter, 'Segoe UI', Arial, sans-serif" font-size="16" font-weight="400" fill="#475569" text-anchor="middle">lenguaje sencillo</text>
<path d="M1595,695.0 L1668,695.0" fill="none" stroke="#16A34A" stroke-width="3.2" stroke-linecap="round" stroke-linejoin="round" marker-end="url(#ah-16A34A)"/>
<text x="1642.5" y="683.0" font-family="Inter, 'Segoe UI', Arial, sans-serif" font-size="15" font-weight="700" fill="#16A34A" text-anchor="middle">Cumple</text>
<path d="M1532.5,795 L1532.5,838 L1777.5,838 L1777.5,797" fill="none" stroke="#DC2626" stroke-width="2.8" stroke-linecap="round" stroke-linejoin="round" marker-end="url(#ah-DC2626)"/>
<text x="1655.0" y="862.0" font-family="Inter, 'Segoe UI', Arial, sans-serif" font-size="14.5" font-weight="700" fill="#DC2626" text-anchor="middle">Sin éxito tras 5 intentos:</text>
<text x="1655.0" y="881.0" font-family="Inter, 'Segoe UI', Arial, sans-serif" font-size="14.5" font-weight="500" fill="#DC2626" text-anchor="middle">se documenta el mejor intento</text>
<rect x="1945" y="268" width="230" height="600" rx="20" fill="#F0FDF4" stroke="#86EFAC" stroke-width="1.8" filter="url(#shadow)"/>
<g transform="translate(2034.0,288.0) scale(2.1667)" fill="none" stroke="#16A34A" stroke-width="1.8" stroke-linecap="round" stroke-linejoin="round"><path d="m16 16 2 2 4-4" /> <path d="M21 10V8a2 2 0 0 0-1-1.73l-7-4a2 2 0 0 0-2 0l-7 4A2 2 0 0 0 3 8v8a2 2 0 0 0 1 1.73l7 4a2 2 0 0 0 2 0l2-1.14" /> <path d="m7.5 4.27 9 5.15" /> <polyline points="3.29 7 12 12 20.71 7" /> <line x1="12" x2="12" y1="22" y2="12" /></g>
<text x="2060.0" y="368.0" font-family="Inter, 'Segoe UI', Arial, sans-serif" font-size="22" font-weight="700" fill="#0F172A" text-anchor="middle">Resultado</text>
<text x="2060.0" y="392.0" font-family="Inter, 'Segoe UI', Arial, sans-serif" font-size="15" font-weight="400" fill="#475569" text-anchor="middle">lo que recibe el usuario</text>
<circle cx="1981" cy="442" r="20" fill="#FFFFFF" stroke="#BBF7D0" stroke-width="1.4"/>
<g transform="translate(1969.0,430.0) scale(1.0000)" fill="none" stroke="#16A34A" stroke-width="2" stroke-linecap="round" stroke-linejoin="round"><rect width="18" height="18" x="3" y="3" rx="2" /> <path d="M11 9h4a2 2 0 0 0 2-2V3" /> <circle cx="9" cy="9" r="2" /> <path d="M7 21v-4a2 2 0 0 1 2-2h4" /> <circle cx="15" cy="15" r="2" /></g>
<text x="2011.0" y="438.0" font-family="Inter, 'Segoe UI', Arial, sans-serif" font-size="16.5" font-weight="700" fill="#1E293B" text-anchor="start">Esquema</text>
<text x="2011.0" y="458.0" font-family="Inter, 'Segoe UI', Arial, sans-serif" font-size="14" font-weight="400" fill="#475569" text-anchor="start">del circuito</text>
<circle cx="1981" cy="512" r="20" fill="#FFFFFF" stroke="#BBF7D0" stroke-width="1.4"/>
<g transform="translate(1969.0,500.0) scale(1.0000)" fill="none" stroke="#16A34A" stroke-width="2" stroke-linecap="round" stroke-linejoin="round"><path d="M3 3v16a2 2 0 0 0 2 2h16" /> <path d="m19 9-5 5-4-4-3 3" /></g>
<text x="2011.0" y="508.0" font-family="Inter, 'Segoe UI', Arial, sans-serif" font-size="16.5" font-weight="700" fill="#1E293B" text-anchor="start">Gráficas</text>
<text x="2011.0" y="528.0" font-family="Inter, 'Segoe UI', Arial, sans-serif" font-size="14" font-weight="400" fill="#475569" text-anchor="start">de la simulación</text>
<circle cx="1981" cy="582" r="20" fill="#FFFFFF" stroke="#BBF7D0" stroke-width="1.4"/>
<g transform="translate(1969.0,570.0) scale(1.0000)" fill="none" stroke="#16A34A" stroke-width="2" stroke-linecap="round" stroke-linejoin="round"><path d="M10 12.5 8 15l2 2.5" /> <path d="m14 12.5 2 2.5-2 2.5" /> <path d="M14 2v4a2 2 0 0 0 2 2h4" /> <path d="M15 2H6a2 2 0 0 0-2 2v16a2 2 0 0 0 2 2h12a2 2 0 0 0 2-2V7z" /></g>
<text x="2011.0" y="578.0" font-family="Inter, 'Segoe UI', Arial, sans-serif" font-size="16.5" font-weight="700" fill="#1E293B" text-anchor="start">Código SPICE</text>
<text x="2011.0" y="598.0" font-family="Inter, 'Segoe UI', Arial, sans-serif" font-size="14" font-weight="400" fill="#475569" text-anchor="start">listo para usar</text>
<circle cx="1981" cy="652" r="20" fill="#FFFFFF" stroke="#BBF7D0" stroke-width="1.4"/>
<g transform="translate(1969.0,640.0) scale(1.0000)" fill="none" stroke="#16A34A" stroke-width="2" stroke-linecap="round" stroke-linejoin="round"><path d="M3 12h.01" /> <path d="M3 18h.01" /> <path d="M3 6h.01" /> <path d="M8 12h13" /> <path d="M8 18h13" /> <path d="M8 6h13" /></g>
<text x="2011.0" y="648.0" font-family="Inter, 'Segoe UI', Arial, sans-serif" font-size="16.5" font-weight="700" fill="#1E293B" text-anchor="start">Valores de</text>
<text x="2011.0" y="668.0" font-family="Inter, 'Segoe UI', Arial, sans-serif" font-size="14" font-weight="400" fill="#475569" text-anchor="start">los componentes</text>
<circle cx="1981" cy="722" r="20" fill="#FFFFFF" stroke="#BBF7D0" stroke-width="1.4"/>
<g transform="translate(1969.0,710.0) scale(1.0000)" fill="none" stroke="#16A34A" stroke-width="2" stroke-linecap="round" stroke-linejoin="round"><path d="M12 7v14" /> <path d="M3 18a1 1 0 0 1-1-1V4a1 1 0 0 1 1-1h5a4 4 0 0 1 4 4 4 4 0 0 1 4-4h5a1 1 0 0 1 1 1v13a1 1 0 0 1-1 1h-6a3 3 0 0 0-3 3 3 3 0 0 0-3-3z" /></g>
<text x="2011.0" y="718.0" font-family="Inter, 'Segoe UI', Arial, sans-serif" font-size="16.5" font-weight="700" fill="#1E293B" text-anchor="start">Explicación</text>
<text x="2011.0" y="738.0" font-family="Inter, 'Segoe UI', Arial, sans-serif" font-size="14" font-weight="400" fill="#475569" text-anchor="start">en palabras simples</text>
<circle cx="1981" cy="792" r="20" fill="#FFFFFF" stroke="#BBF7D0" stroke-width="1.4"/>
<g transform="translate(1969.0,780.0) scale(1.0000)" fill="none" stroke="#16A34A" stroke-width="2" stroke-linecap="round" stroke-linejoin="round"><path d="M3.85 8.62a4 4 0 0 1 4.78-4.77 4 4 0 0 1 6.74 0 4 4 0 0 1 4.78 4.78 4 4 0 0 1 0 6.74 4 4 0 0 1-4.77 4.78 4 4 0 0 1-6.75 0 4 4 0 0 1-4.78-4.77 4 4 0 0 1 0-6.76Z" /> <path d="m9 12 2 2 4-4" /></g>
<text x="2011.0" y="788.0" font-family="Inter, 'Segoe UI', Arial, sans-serif" font-size="16.5" font-weight="700" fill="#1E293B" text-anchor="start">Veredicto</text>
<text x="2011.0" y="808.0" font-family="Inter, 'Segoe UI', Arial, sans-serif" font-size="14" font-weight="400" fill="#475569" text-anchor="start">si cumple, y por qué</text>
<path d="M1885,695.0 L1938,695.0" fill="none" stroke="#334155" stroke-width="2.8" stroke-linecap="round" stroke-linejoin="round" marker-end="url(#ah-334155)"/>
<path d="M2060.0,873 L2060.0,950 L342.5,950 L342.5,548" fill="none" stroke="#2563EB" stroke-width="2.5" stroke-linecap="round" stroke-linejoin="round" stroke-dasharray="7 6" marker-end="url(#ah-2563EB)"/>
<rect x="1050" y="931" width="640.09375" height="38" rx="19" fill="#FFFFFF" stroke="#93C5FD" stroke-width="1.5"/>
<g transform="translate(1066.0,939.0) scale(0.9167)" fill="none" stroke="#2563EB" stroke-width="2" stroke-linecap="round" stroke-linejoin="round"><path d="M14 9a2 2 0 0 1-2 2H6l-4 4V4a2 2 0 0 1 2-2h8a2 2 0 0 1 2 2z" /> <path d="M18 9h2a2 2 0 0 1 2 2v11l-4-4h-6a2 2 0 0 1-2-2v-1" /></g>
<text x="1098.0" y="956.0" font-family="Inter, 'Segoe UI', Arial, sans-serif" font-size="15.5" font-weight="600" fill="#2563EB" text-anchor="start">Toda respuesta vuelve a la aplicación y el usuario puede seguir conversando</text>
<text x="30.0" y="996.0" font-family="Inter, 'Segoe UI', Arial, sans-serif" font-size="14" font-weight="800" fill="#64748B" text-anchor="start" letter-spacing="1.4">RECURSOS QUE CONSULTAN LOS AGENTES</text>
<text x="389.0" y="996.0" font-family="Inter, 'Segoe UI', Arial, sans-serif" font-size="14" font-weight="400" fill="#64748B" text-anchor="start">· el ícono de color en cada tarjeta indica cuál usa</text>
<rect x="30.0" y="1012" width="518.25" height="116" rx="16" fill="#FFFFFF" stroke="#E2E8F0" stroke-width="1.5" filter="url(#shadow)"/>
<circle cx="82.0" cy="1070" r="32" fill="#EDE9FE" stroke="#7C3AED" stroke-width="1.6"/>
<g transform="translate(64.0,1052.0) scale(1.5000)" fill="none" stroke="#7C3AED" stroke-width="2" stroke-linecap="round" stroke-linejoin="round"><path d="M9.937 15.5A2 2 0 0 0 8.5 14.063l-6.135-1.582a.5.5 0 0 1 0-.962L8.5 9.936A2 2 0 0 0 9.937 8.5l1.582-6.135a.5.5 0 0 1 .963 0L14.063 8.5A2 2 0 0 0 15.5 9.937l6.135 1.581a.5.5 0 0 1 0 .964L15.5 14.063a2 2 0 0 0-1.437 1.437l-1.582 6.135a.5.5 0 0 1-.963 0z" /> <path d="M20 3v4" /> <path d="M22 5h-4" /> <path d="M4 17v2" /> <path d="M5 18H3" /></g>
<text x="134.0" y="1058.0" font-family="Inter, 'Segoe UI', Arial, sans-serif" font-size="19" font-weight="700" fill="#0F172A" text-anchor="start">Modelo de lenguaje (IA)</text>
<text x="134.0" y="1085.0" font-family="Inter, 'Segoe UI', Arial, sans-serif" font-size="15.5" font-weight="400" fill="#475569" text-anchor="start">En la nube o local; el usuario</text>
<text x="134.0" y="1105.0" font-family="Inter, 'Segoe UI', Arial, sans-serif" font-size="15.5" font-weight="400" fill="#475569" text-anchor="start">elige cuál usa cada agente</text>
<rect x="572.25" y="1012" width="518.25" height="116" rx="16" fill="#FFFFFF" stroke="#E2E8F0" stroke-width="1.5" filter="url(#shadow)"/>
<circle cx="624.25" cy="1070" r="32" fill="#CFFAFE" stroke="#0891B2" stroke-width="1.6"/>
<g transform="translate(606.2,1052.0) scale(1.5000)" fill="none" stroke="#0891B2" stroke-width="2" stroke-linecap="round" stroke-linejoin="round"><path d="m16 6 4 14" /> <path d="M12 6v14" /> <path d="M8 8v12" /> <path d="M4 4v16" /></g>
<text x="676.2" y="1058.0" font-family="Inter, 'Segoe UI', Arial, sans-serif" font-size="19" font-weight="700" fill="#0F172A" text-anchor="start">Catálogo de circuitos</text>
<text x="676.2" y="1085.0" font-family="Inter, 'Segoe UI', Arial, sans-serif" font-size="15.5" font-weight="400" fill="#475569" text-anchor="start">Circuitos conocidos con sus</text>
<text x="676.2" y="1105.0" font-family="Inter, 'Segoe UI', Arial, sans-serif" font-size="15.5" font-weight="400" fill="#475569" text-anchor="start">fórmulas y plantillas</text>
<rect x="1114.5" y="1012" width="518.25" height="116" rx="16" fill="#FFFFFF" stroke="#E2E8F0" stroke-width="1.5" filter="url(#shadow)"/>
<circle cx="1166.5" cy="1070" r="32" fill="#FFEDD5" stroke="#EA580C" stroke-width="1.6"/>
<g transform="translate(1148.5,1052.0) scale(1.5000)" fill="none" stroke="#EA580C" stroke-width="2" stroke-linecap="round" stroke-linejoin="round"><path d="M22 12h-2.48a2 2 0 0 0-1.93 1.46l-2.35 8.36a.25.25 0 0 1-.48 0L9.24 2.18a.25.25 0 0 0-.48 0l-2.35 8.36A2 2 0 0 1 4.49 12H2" /></g>
<text x="1218.5" y="1058.0" font-family="Inter, 'Segoe UI', Arial, sans-serif" font-size="19" font-weight="700" fill="#0F172A" text-anchor="start">Simulador ngspice</text>
<text x="1218.5" y="1085.0" font-family="Inter, 'Segoe UI', Arial, sans-serif" font-size="15.5" font-weight="400" fill="#475569" text-anchor="start">Simula el circuito como si</text>
<text x="1218.5" y="1105.0" font-family="Inter, 'Segoe UI', Arial, sans-serif" font-size="15.5" font-weight="400" fill="#475569" text-anchor="start">estuviera armado</text>
<rect x="1656.75" y="1012" width="518.25" height="116" rx="16" fill="#FFFFFF" stroke="#E2E8F0" stroke-width="1.5" filter="url(#shadow)"/>
<circle cx="1708.75" cy="1070" r="32" fill="#E2E8F0" stroke="#475569" stroke-width="1.6"/>
<g transform="translate(1690.8,1052.0) scale(1.5000)" fill="none" stroke="#475569" stroke-width="2" stroke-linecap="round" stroke-linejoin="round"><ellipse cx="12" cy="5" rx="9" ry="3" /> <path d="M3 5V19A9 3 0 0 0 21 19V5" /> <path d="M3 12A9 3 0 0 0 21 12" /></g>
<text x="1760.8" y="1058.0" font-family="Inter, 'Segoe UI', Arial, sans-serif" font-size="19" font-weight="700" fill="#0F172A" text-anchor="start">Memoria (base de datos)</text>
<text x="1760.8" y="1085.0" font-family="Inter, 'Segoe UI', Arial, sans-serif" font-size="15.5" font-weight="400" fill="#475569" text-anchor="start">Guarda proyectos, conversaciones,</text>
<text x="1760.8" y="1105.0" font-family="Inter, 'Segoe UI', Arial, sans-serif" font-size="15.5" font-weight="400" fill="#475569" text-anchor="start">resultados y avance</text>
<rect x="30" y="1158" width="2145" height="54" rx="14" fill="#F8FAFC" stroke="#E2E8F0" stroke-width="1.5"/>
<text x="50.0" y="1191.0" font-family="Inter, 'Segoe UI', Arial, sans-serif" font-size="16" font-weight="700" fill="#1E293B" text-anchor="start">Simbología</text>
<path d="M167.25,1185 L213.25,1185" fill="none" stroke="#334155" stroke-width="2.8" stroke-linecap="round" stroke-linejoin="round" marker-end="url(#ah-334155)"/>
<text x="225.2" y="1190.0" font-family="Inter, 'Segoe UI', Arial, sans-serif" font-size="15" font-weight="400" fill="#475569" text-anchor="start">Camino principal del diseño</text>
<path d="M456.015625,1185 L502.015625,1185" fill="none" stroke="#D97706" stroke-width="3.2" stroke-linecap="round" stroke-linejoin="round" marker-end="url(#ah-D97706)"/>
<text x="514.0" y="1190.0" font-family="Inter, 'Segoe UI', Arial, sans-serif" font-size="15" font-weight="400" fill="#475569" text-anchor="start">Ciclo de corrección</text>
<path d="M686.390625,1185 L732.390625,1185" fill="none" stroke="#16A34A" stroke-width="3.2" stroke-linecap="round" stroke-linejoin="round" marker-end="url(#ah-16A34A)"/>
<text x="744.4" y="1190.0" font-family="Inter, 'Segoe UI', Arial, sans-serif" font-size="15" font-weight="400" fill="#475569" text-anchor="start">Diseño aprobado</text>
<path d="M899.546875,1185 L945.546875,1185" fill="none" stroke="#DC2626" stroke-width="2.8" stroke-linecap="round" stroke-linejoin="round" marker-end="url(#ah-DC2626)"/>
<text x="957.5" y="1190.0" font-family="Inter, 'Segoe UI', Arial, sans-serif" font-size="15" font-weight="400" fill="#475569" text-anchor="start">No se logró la meta</text>
<path d="M1128.984375,1185 L1174.984375,1185" fill="none" stroke="#2563EB" stroke-width="2.5" stroke-linecap="round" stroke-linejoin="round" stroke-dasharray="7 6" marker-end="url(#ah-2563EB)"/>
<text x="1187.0" y="1190.0" font-family="Inter, 'Segoe UI', Arial, sans-serif" font-size="15" font-weight="400" fill="#475569" text-anchor="start">Respuesta o diálogo con el usuario</text>
<circle cx="1482.84375" cy="1185" r="16" fill="#6D28D9"/>
<text x="1482.8" y="1191.0" font-family="Inter, 'Segoe UI', Arial, sans-serif" font-size="17" font-weight="700" fill="#fff" text-anchor="middle">1</text>
<text x="1506.8" y="1190.0" font-family="Inter, 'Segoe UI', Arial, sans-serif" font-size="15" font-weight="400" fill="#475569" text-anchor="start">Agente (orden de paso)</text>
<rect x="1708.5625" y="1172" width="26" height="26" rx="6" fill="#EDE9FE" stroke="#C4B5FD"/>
<text x="1746.6" y="1190.0" font-family="Inter, 'Segoe UI', Arial, sans-serif" font-size="15" font-weight="400" fill="#475569" text-anchor="start">Bloque de un circuito</text>
</svg>